<svg xmlns="http://www.w3.org/2000/svg" xmlns:xlink="http://www.w3.org/1999/xlink" width="500" zoomAndPan="magnify" viewBox="0 0 375 374.999991" height="500" preserveAspectRatio="xMidYMid meet" version="1.0"><defs><g/><clipPath id="2572d270b0"><path d="M 67.960938 67.960938 L 307.210938 67.960938 L 307.210938 307.210938 L 67.960938 307.210938 Z M 67.960938 67.960938 " clip-rule="nonzero"/></clipPath><clipPath id="1e662deeb1"><path d="M 114.507812 190.746094 L 244.175781 190.746094 L 244.175781 260.496094 L 114.507812 260.496094 Z M 114.507812 190.746094 " clip-rule="nonzero"/></clipPath><clipPath id="46f12fb3c1"><path d="M 111.53125 99.90625 L 261.53125 99.90625 L 261.53125 249.15625 L 111.53125 249.15625 Z M 111.53125 99.90625 " clip-rule="nonzero"/></clipPath><clipPath id="515637449d"><path d="M 161.722656 118.21875 L 190.765625 118.21875 L 190.765625 147.261719 L 161.722656 147.261719 Z M 161.722656 118.21875 " clip-rule="nonzero"/></clipPath><clipPath id="0e9931a4c2"><path d="M 176.242188 118.21875 C 168.222656 118.21875 161.722656 124.722656 161.722656 132.742188 C 161.722656 140.761719 168.222656 147.261719 176.242188 147.261719 C 184.261719 147.261719 190.765625 140.761719 190.765625 132.742188 C 190.765625 124.722656 184.261719 118.21875 176.242188 118.21875 Z M 176.242188 118.21875 " clip-rule="nonzero"/></clipPath></defs><rect x="-37.5" width="450" fill="#ffffff" y="-37.499999" height="449.999989" fill-opacity="1"/><rect x="-37.5" width="450" fill="#ffffff" y="-37.499999" height="449.999989" fill-opacity="1"/><g clip-path="url(#2572d270b0)"><path fill="#000000" d="M 187.585938 307.210938 C 121.644531 307.210938 67.960938 253.527344 67.960938 187.585938 C 67.960938 121.644531 121.644531 67.960938 187.585938 67.960938 C 253.527344 67.960938 307.210938 121.644531 307.210938 187.585938 C 307.210938 253.527344 253.527344 307.210938 187.585938 307.210938 Z M 187.585938 69.730469 C 122.585938 69.730469 69.730469 122.585938 69.730469 187.585938 C 69.730469 252.585938 122.585938 305.441406 187.585938 305.441406 C 252.585938 305.441406 305.441406 252.585938 305.441406 187.585938 C 305.441406 122.585938 252.585938 69.730469 187.585938 69.730469 Z M 187.585938 69.730469 " fill-opacity="1" fill-rule="nonzero"/></g><g clip-path="url(#1e662deeb1)"><path fill="#c6302c" d="M 149.640625 209.398438 L 154.289062 228.441406 L 157.003906 228.441406 L 157.757812 231.691406 L 162.035156 215.074219 L 165.078125 225.480469 L 168.667969 225.480469 L 169.476562 228.925781 L 173.675781 208.933594 L 177.785156 225.480469 L 180.925781 225.480469 L 181.957031 230.960938 L 184.664062 222.355469 L 187.421875 222.355469 L 188.769531 214.5625 L 192.90625 225.480469 L 212.132812 225.480469 L 214.371094 235.9375 L 219.609375 190.753906 L 225.570312 245.597656 L 231.921875 209.460938 L 237.554688 225.738281 L 244.257812 225.738281 L 244.257812 227.816406 L 236.082031 227.816406 L 232.582031 217.714844 L 225.078125 260.363281 L 219.539062 209.378906 L 214.972656 248.722656 L 210.449219 227.558594 L 191.46875 227.558594 L 189.523438 222.417969 L 189.175781 224.433594 L 186.191406 224.433594 L 181.457031 239.5 L 179.207031 227.558594 L 176.164062 227.558594 L 173.847656 218.242188 L 169.59375 238.488281 L 167.023438 227.558594 L 163.519531 227.558594 L 162.160156 222.925781 L 157.648438 240.457031 L 155.355469 230.519531 L 152.660156 230.519531 L 149.875 219.128906 L 148.246094 227.558594 L 114.425781 227.558594 L 114.425781 225.480469 L 146.535156 225.480469 Z M 149.640625 209.398438 " fill-opacity="1" fill-rule="nonzero"/></g><path fill="#ffc803" d="M 257.574219 164.984375 C 257.574219 182.394531 250.25 198.816406 237.386719 210.4375 L 192.429688 140.925781 L 167.621094 178.957031 L 155.164062 157.757812 L 139.554688 182.023438 C 138.738281 177.992188 138.3125 173.820312 138.3125 169.546875 C 138.3125 134.894531 166.402344 106.808594 201.050781 106.808594 C 211.570312 106.808594 221.484375 109.394531 230.191406 113.96875 C 246.6875 124.957031 257.574219 143.726562 257.574219 164.984375 " fill-opacity="1" fill-rule="nonzero"/><g clip-path="url(#46f12fb3c1)"><path fill="#000000" d="M 175.636719 134.753906 L 169.542969 128.308594 L 163.519531 134.320312 L 166.199219 137.003906 L 169.464844 133.742188 L 172.882812 137.355469 Z M 182.402344 128.308594 L 178.984375 124.691406 L 175.71875 127.953125 L 173.039062 125.269531 L 179.058594 119.257812 L 185.15625 125.703125 Z M 133.152344 191.976562 L 135.292969 195.660156 L 114.722656 227.644531 L 111.53125 225.59375 Z M 167.621094 178.957031 L 155.164062 157.757812 L 138.140625 184.222656 C 136.113281 178.089844 135.0625 171.605469 135.0625 164.984375 C 135.0625 131.207031 162.539062 103.730469 196.316406 103.730469 C 230.09375 103.730469 257.574219 131.207031 257.574219 164.984375 C 257.574219 182.394531 250.25 198.816406 237.386719 210.4375 L 192.429688 140.925781 Z M 261.367188 164.984375 C 261.367188 156.207031 259.644531 147.6875 256.253906 139.664062 C 252.976562 131.921875 248.285156 124.960938 242.3125 118.992188 C 236.339844 113.015625 229.382812 108.328125 221.636719 105.050781 C 213.617188 101.660156 205.097656 99.9375 196.316406 99.9375 C 187.539062 99.9375 179.019531 101.660156 170.996094 105.050781 C 163.25 108.328125 156.296875 113.015625 150.320312 118.992188 C 144.347656 124.960938 139.660156 131.921875 136.382812 139.664062 C 132.992188 147.6875 131.269531 156.207031 131.269531 164.984375 C 131.269531 181.769531 137.644531 197.699219 149.214844 209.847656 L 150.867188 211.582031 L 164.519531 190.652344 L 162.164062 187.320312 L 150.332031 205.457031 C 145.886719 200.414062 142.34375 194.742188 139.796875 188.65625 L 155.019531 164.992188 L 174.855469 198.746094 L 178.125 196.824219 L 169.765625 182.605469 L 192.414062 147.882812 L 257.878906 249.097656 L 261.0625 247.039062 L 239.472656 213.65625 C 253.410156 201.296875 261.367188 183.679688 261.367188 164.984375 " fill-opacity="1" fill-rule="nonzero"/></g><g clip-path="url(#515637449d)"><g clip-path="url(#0e9931a4c2)"><path fill="#ffc803" d="M 161.722656 118.21875 L 190.765625 118.21875 L 190.765625 147.261719 L 161.722656 147.261719 Z M 161.722656 118.21875 " fill-opacity="1" fill-rule="nonzero"/></g></g><g fill="#000000" fill-opacity="1"><g transform="translate(114.80971, 275.086271)"><g><path d="M 0.015625 -7.359375 L 1.28125 -7.359375 L 2.203125 -3.21875 C 2.253906 -2.96875 2.3125 -2.644531 2.375 -2.25 C 2.4375 -1.851562 2.472656 -1.59375 2.484375 -1.46875 L 2.546875 -1.46875 C 2.554688 -1.582031 2.582031 -1.820312 2.625 -2.1875 C 2.664062 -2.5625 2.710938 -2.90625 2.765625 -3.21875 L 3.515625 -7.359375 L 4.84375 -7.359375 L 5.59375 -3.21875 C 5.65625 -2.914062 5.707031 -2.578125 5.75 -2.203125 C 5.789062 -1.828125 5.816406 -1.582031 5.828125 -1.46875 L 5.875 -1.46875 C 5.882812 -1.570312 5.914062 -1.800781 5.96875 -2.15625 C 6.03125 -2.507812 6.097656 -2.863281 6.171875 -3.21875 L 7.09375 -7.359375 L 8.265625 -7.359375 L 6.421875 0 L 5.15625 0 L 4.375 -4.203125 C 4.320312 -4.515625 4.273438 -4.847656 4.234375 -5.203125 C 4.191406 -5.554688 4.164062 -5.785156 4.15625 -5.890625 L 4.109375 -5.890625 C 4.097656 -5.785156 4.070312 -5.554688 4.03125 -5.203125 C 3.988281 -4.847656 3.9375 -4.515625 3.875 -4.203125 L 3.125 0 L 1.84375 0 Z M 0.015625 -7.359375 "/></g></g></g><g fill="#000000" fill-opacity="1"><g transform="translate(123.093092, 275.086271)"><g><path d="M 0.015625 -7.359375 L 1.28125 -7.359375 L 2.203125 -3.21875 C 2.253906 -2.96875 2.3125 -2.644531 2.375 -2.25 C 2.4375 -1.851562 2.472656 -1.59375 2.484375 -1.46875 L 2.546875 -1.46875 C 2.554688 -1.582031 2.582031 -1.820312 2.625 -2.1875 C 2.664062 -2.5625 2.710938 -2.90625 2.765625 -3.21875 L 3.515625 -7.359375 L 4.84375 -7.359375 L 5.59375 -3.21875 C 5.65625 -2.914062 5.707031 -2.578125 5.75 -2.203125 C 5.789062 -1.828125 5.816406 -1.582031 5.828125 -1.46875 L 5.875 -1.46875 C 5.882812 -1.570312 5.914062 -1.800781 5.96875 -2.15625 C 6.03125 -2.507812 6.097656 -2.863281 6.171875 -3.21875 L 7.09375 -7.359375 L 8.265625 -7.359375 L 6.421875 0 L 5.15625 0 L 4.375 -4.203125 C 4.320312 -4.515625 4.273438 -4.847656 4.234375 -5.203125 C 4.191406 -5.554688 4.164062 -5.785156 4.15625 -5.890625 L 4.109375 -5.890625 C 4.097656 -5.785156 4.070312 -5.554688 4.03125 -5.203125 C 3.988281 -4.847656 3.9375 -4.515625 3.875 -4.203125 L 3.125 0 L 1.84375 0 Z M 0.015625 -7.359375 "/></g></g></g><g fill="#000000" fill-opacity="1"><g transform="translate(131.376474, 275.086271)"><g><path d="M 0.015625 -7.359375 L 1.28125 -7.359375 L 2.203125 -3.21875 C 2.253906 -2.96875 2.3125 -2.644531 2.375 -2.25 C 2.4375 -1.851562 2.472656 -1.59375 2.484375 -1.46875 L 2.546875 -1.46875 C 2.554688 -1.582031 2.582031 -1.820312 2.625 -2.1875 C 2.664062 -2.5625 2.710938 -2.90625 2.765625 -3.21875 L 3.515625 -7.359375 L 4.84375 -7.359375 L 5.59375 -3.21875 C 5.65625 -2.914062 5.707031 -2.578125 5.75 -2.203125 C 5.789062 -1.828125 5.816406 -1.582031 5.828125 -1.46875 L 5.875 -1.46875 C 5.882812 -1.570312 5.914062 -1.800781 5.96875 -2.15625 C 6.03125 -2.507812 6.097656 -2.863281 6.171875 -3.21875 L 7.09375 -7.359375 L 8.265625 -7.359375 L 6.421875 0 L 5.15625 0 L 4.375 -4.203125 C 4.320312 -4.515625 4.273438 -4.847656 4.234375 -5.203125 C 4.191406 -5.554688 4.164062 -5.785156 4.15625 -5.890625 L 4.109375 -5.890625 C 4.097656 -5.785156 4.070312 -5.554688 4.03125 -5.203125 C 3.988281 -4.847656 3.9375 -4.515625 3.875 -4.203125 L 3.125 0 L 1.84375 0 Z M 0.015625 -7.359375 "/></g></g></g><g fill="#000000" fill-opacity="1"><g transform="translate(139.659856, 275.086271)"><g><path d="M 0.890625 -1.515625 L 2.296875 -1.515625 L 2.296875 0 L 0.890625 0 Z M 0.890625 -1.515625 "/></g></g></g><g fill="#000000" fill-opacity="1"><g transform="translate(142.85008, 275.086271)"><g><path d="M 2.828125 0.171875 C 2.035156 0.171875 1.441406 -0.0351562 1.046875 -0.453125 C 0.660156 -0.867188 0.46875 -1.378906 0.46875 -1.984375 C 0.46875 -2.097656 0.46875 -2.175781 0.46875 -2.21875 C 0.46875 -2.257812 0.46875 -2.285156 0.46875 -2.296875 L 1.6875 -2.296875 L 1.6875 -2.15625 C 1.6875 -1.71875 1.796875 -1.390625 2.015625 -1.171875 C 2.242188 -0.953125 2.535156 -0.84375 2.890625 -0.84375 C 3.203125 -0.84375 3.460938 -0.9375 3.671875 -1.125 C 3.878906 -1.3125 3.984375 -1.582031 3.984375 -1.9375 C 3.984375 -2.195312 3.914062 -2.410156 3.78125 -2.578125 C 3.65625 -2.742188 3.5 -2.875 3.3125 -2.96875 C 3.125 -3.070312 2.863281 -3.179688 2.53125 -3.296875 C 2.125 -3.441406 1.789062 -3.582031 1.53125 -3.71875 C 1.28125 -3.863281 1.066406 -4.070312 0.890625 -4.34375 C 0.710938 -4.625 0.625 -4.988281 0.625 -5.4375 C 0.625 -6.070312 0.832031 -6.578125 1.25 -6.953125 C 1.664062 -7.335938 2.222656 -7.53125 2.921875 -7.53125 C 3.585938 -7.53125 4.109375 -7.335938 4.484375 -6.953125 C 4.859375 -6.566406 5.046875 -6.085938 5.046875 -5.515625 L 5.03125 -5.25 L 3.84375 -5.25 L 3.84375 -5.375 C 3.84375 -5.695312 3.757812 -5.96875 3.59375 -6.1875 C 3.4375 -6.414062 3.175781 -6.53125 2.8125 -6.53125 C 2.445312 -6.53125 2.1875 -6.425781 2.03125 -6.21875 C 1.882812 -6.007812 1.8125 -5.773438 1.8125 -5.515625 C 1.8125 -5.203125 1.921875 -4.96875 2.140625 -4.8125 C 2.367188 -4.65625 2.707031 -4.503906 3.15625 -4.359375 C 3.582031 -4.203125 3.929688 -4.050781 4.203125 -3.90625 C 4.472656 -3.769531 4.703125 -3.554688 4.890625 -3.265625 C 5.085938 -2.972656 5.1875 -2.582031 5.1875 -2.09375 C 5.1875 -1.34375 4.972656 -0.773438 4.546875 -0.390625 C 4.117188 -0.015625 3.546875 0.171875 2.828125 0.171875 Z M 2.828125 0.171875 "/></g></g></g><g fill="#000000" fill-opacity="1"><g transform="translate(148.586877, 275.086271)"><g><path d="M 0.84375 -7.359375 L 1.703125 -7.359375 L 1.859375 -6.515625 L 1.9375 -6.515625 C 2.113281 -6.847656 2.335938 -7.097656 2.609375 -7.265625 C 2.890625 -7.441406 3.203125 -7.53125 3.546875 -7.53125 C 4.273438 -7.53125 4.835938 -7.210938 5.234375 -6.578125 C 5.628906 -5.941406 5.828125 -4.972656 5.828125 -3.671875 C 5.828125 -2.398438 5.625 -1.441406 5.21875 -0.796875 C 4.8125 -0.148438 4.28125 0.171875 3.625 0.171875 C 3.269531 0.171875 2.945312 0.0976562 2.65625 -0.046875 C 2.375 -0.191406 2.175781 -0.390625 2.0625 -0.640625 L 1.984375 -0.640625 L 1.984375 2.421875 L 0.84375 2.421875 Z M 3.296875 -0.859375 C 3.742188 -0.859375 4.078125 -1.054688 4.296875 -1.453125 C 4.515625 -1.859375 4.625 -2.515625 4.625 -3.421875 L 4.625 -3.953125 C 4.625 -4.859375 4.515625 -5.507812 4.296875 -5.90625 C 4.078125 -6.3125 3.742188 -6.515625 3.296875 -6.515625 C 2.421875 -6.515625 1.984375 -5.660156 1.984375 -3.953125 L 1.984375 -3.421875 C 1.984375 -1.710938 2.421875 -0.859375 3.296875 -0.859375 Z M 3.296875 -0.859375 "/></g></g></g><g fill="#000000" fill-opacity="1"><g transform="translate(154.967312, 275.086271)"><g><path d="M 3.1875 0.171875 C 2.320312 0.171875 1.664062 -0.140625 1.21875 -0.765625 C 0.78125 -1.398438 0.5625 -2.375 0.5625 -3.6875 C 0.5625 -4.988281 0.78125 -5.953125 1.21875 -6.578125 C 1.664062 -7.210938 2.320312 -7.53125 3.1875 -7.53125 C 4.0625 -7.53125 4.71875 -7.210938 5.15625 -6.578125 C 5.601562 -5.953125 5.828125 -4.988281 5.828125 -3.6875 C 5.828125 -2.375 5.601562 -1.398438 5.15625 -0.765625 C 4.71875 -0.140625 4.0625 0.171875 3.1875 0.171875 Z M 3.1875 -0.859375 C 4.144531 -0.859375 4.625 -1.710938 4.625 -3.421875 L 4.625 -3.953125 C 4.625 -5.660156 4.144531 -6.515625 3.1875 -6.515625 C 2.238281 -6.515625 1.765625 -5.660156 1.765625 -3.953125 L 1.765625 -3.421875 C 1.765625 -1.710938 2.238281 -0.859375 3.1875 -0.859375 Z M 3.1875 -0.859375 "/></g></g></g><g fill="#000000" fill-opacity="1"><g transform="translate(161.347748, 275.086271)"><g><path d="M 0.84375 -7.359375 L 1.703125 -7.359375 L 1.859375 -6.390625 L 1.953125 -6.390625 C 2.046875 -6.722656 2.195312 -6.992188 2.40625 -7.203125 C 2.613281 -7.421875 2.875 -7.53125 3.1875 -7.53125 C 3.320312 -7.53125 3.441406 -7.515625 3.546875 -7.484375 C 3.648438 -7.453125 3.710938 -7.429688 3.734375 -7.421875 L 3.734375 -6.234375 L 3.359375 -6.234375 C 2.960938 -6.234375 2.632812 -6.09375 2.375 -5.8125 C 2.113281 -5.539062 1.984375 -5.101562 1.984375 -4.5 L 1.984375 0 L 0.84375 0 Z M 0.84375 -7.359375 "/></g></g></g><g fill="#000000" fill-opacity="1"><g transform="translate(165.167613, 275.086271)"><g><path d="M 2.140625 0.140625 C 1.671875 0.140625 1.332031 -0.0195312 1.125 -0.34375 C 0.925781 -0.664062 0.828125 -1.066406 0.828125 -1.546875 L 0.828125 -6.34375 L 0.203125 -6.34375 L 0.203125 -7.359375 L 0.828125 -7.359375 L 1.078125 -9.40625 L 1.96875 -9.40625 L 1.96875 -7.359375 L 2.96875 -7.359375 L 2.96875 -6.34375 L 1.96875 -6.34375 L 1.96875 -1.53125 C 1.96875 -1.082031 2.1875 -0.859375 2.625 -0.859375 L 2.96875 -0.859375 L 2.96875 -0.0625 C 2.863281 0 2.734375 0.046875 2.578125 0.078125 C 2.429688 0.117188 2.285156 0.140625 2.140625 0.140625 Z M 2.140625 0.140625 "/></g></g></g><g fill="#000000" fill-opacity="1"><g transform="translate(168.357837, 275.086271)"><g><path d="M 0.84375 -7.359375 L 1.703125 -7.359375 L 1.859375 -6.515625 L 1.953125 -6.515625 C 2.304688 -7.191406 2.863281 -7.53125 3.625 -7.53125 C 4.414062 -7.53125 4.9375 -7.175781 5.1875 -6.46875 C 5.375 -6.8125 5.628906 -7.070312 5.953125 -7.25 C 6.273438 -7.4375 6.617188 -7.53125 6.984375 -7.53125 C 8.140625 -7.53125 8.71875 -6.789062 8.71875 -5.3125 L 8.71875 0 L 7.578125 0 L 7.578125 -5.21875 C 7.578125 -5.695312 7.488281 -6.03125 7.3125 -6.21875 C 7.144531 -6.414062 6.914062 -6.515625 6.625 -6.515625 C 6.269531 -6.515625 5.96875 -6.332031 5.71875 -5.96875 C 5.476562 -5.601562 5.359375 -5.113281 5.359375 -4.5 L 5.359375 0 L 4.21875 0 L 4.21875 -5.21875 C 4.21875 -5.695312 4.128906 -6.03125 3.953125 -6.21875 C 3.785156 -6.414062 3.554688 -6.515625 3.265625 -6.515625 C 2.910156 -6.515625 2.609375 -6.332031 2.359375 -5.96875 C 2.109375 -5.601562 1.984375 -5.113281 1.984375 -4.5 L 1.984375 0 L 0.84375 0 Z M 0.84375 -7.359375 "/></g></g></g><g fill="#000000" fill-opacity="1"><g transform="translate(177.9145, 275.086271)"><g><path d="M 3.375 0.171875 C 2.4375 0.171875 1.738281 -0.132812 1.28125 -0.75 C 0.820312 -1.363281 0.59375 -2.34375 0.59375 -3.6875 C 0.59375 -5 0.816406 -5.96875 1.265625 -6.59375 C 1.722656 -7.21875 2.421875 -7.53125 3.359375 -7.53125 C 4.179688 -7.53125 4.789062 -7.253906 5.1875 -6.703125 C 5.582031 -6.160156 5.78125 -5.285156 5.78125 -4.078125 L 5.78125 -3.34375 L 1.796875 -3.34375 C 1.804688 -2.488281 1.9375 -1.859375 2.1875 -1.453125 C 2.445312 -1.054688 2.851562 -0.859375 3.40625 -0.859375 C 3.78125 -0.859375 4.078125 -1.003906 4.296875 -1.296875 C 4.523438 -1.597656 4.640625 -2 4.640625 -2.5 L 5.78125 -2.5 C 5.78125 -1.6875 5.554688 -1.035156 5.109375 -0.546875 C 4.671875 -0.0664062 4.09375 0.171875 3.375 0.171875 Z M 4.578125 -4.375 C 4.578125 -5.070312 4.472656 -5.601562 4.265625 -5.96875 C 4.066406 -6.332031 3.765625 -6.515625 3.359375 -6.515625 C 2.867188 -6.515625 2.5 -6.335938 2.25 -5.984375 C 2 -5.628906 1.851562 -5.09375 1.8125 -4.375 Z M 4.578125 -4.375 "/></g></g></g><g fill="#000000" fill-opacity="1"><g transform="translate(184.294935, 275.086271)"><g><path d="M 2.84375 0.171875 C 2.113281 0.171875 1.550781 -0.144531 1.15625 -0.78125 C 0.757812 -1.414062 0.5625 -2.390625 0.5625 -3.703125 C 0.5625 -4.960938 0.765625 -5.914062 1.171875 -6.5625 C 1.578125 -7.207031 2.109375 -7.53125 2.765625 -7.53125 C 3.117188 -7.53125 3.4375 -7.453125 3.71875 -7.296875 C 4 -7.140625 4.203125 -6.925781 4.328125 -6.65625 L 4.390625 -6.65625 L 4.390625 -10.125 L 5.546875 -10.125 L 5.546875 0 L 4.671875 0 L 4.515625 -0.859375 L 4.453125 -0.859375 C 4.273438 -0.515625 4.046875 -0.253906 3.765625 -0.078125 C 3.484375 0.0859375 3.175781 0.171875 2.84375 0.171875 Z M 3.078125 -0.859375 C 3.953125 -0.859375 4.390625 -1.710938 4.390625 -3.421875 L 4.390625 -3.890625 C 4.390625 -5.640625 3.953125 -6.515625 3.078125 -6.515625 C 2.628906 -6.515625 2.296875 -6.3125 2.078125 -5.90625 C 1.867188 -5.507812 1.765625 -4.859375 1.765625 -3.953125 L 1.765625 -3.421875 C 1.765625 -2.515625 1.867188 -1.859375 2.078125 -1.453125 C 2.296875 -1.054688 2.628906 -0.859375 3.078125 -0.859375 Z M 3.078125 -0.859375 "/></g></g></g><g fill="#000000" fill-opacity="1"><g transform="translate(190.675371, 275.086271)"><g><path d="M 0.703125 -10.125 L 1.84375 -10.125 L 1.84375 -8.75 L 0.703125 -8.75 Z M 0.703125 -7.359375 L 1.84375 -7.359375 L 1.84375 0 L 0.703125 0 Z M 0.703125 -7.359375 "/></g></g></g><g fill="#000000" fill-opacity="1"><g transform="translate(193.221944, 275.086271)"><g><path d="M 0.359375 -0.546875 L 3.59375 -6.34375 L 0.59375 -6.34375 L 0.59375 -7.359375 L 5.1875 -7.359375 L 5.1875 -6.828125 L 1.9375 -1.015625 L 5.359375 -1.015625 L 5.359375 0 L 0.359375 0 Z M 0.359375 -0.546875 "/></g></g></g><g fill="#000000" fill-opacity="1"><g transform="translate(198.958741, 275.086271)"><g><path d="M 0.703125 -10.125 L 1.84375 -10.125 L 1.84375 -8.75 L 0.703125 -8.75 Z M 0.703125 -7.359375 L 1.84375 -7.359375 L 1.84375 0 L 0.703125 0 Z M 0.703125 -7.359375 "/></g></g></g><g fill="#000000" fill-opacity="1"><g transform="translate(201.505315, 275.086271)"><g><path d="M 0.84375 -7.359375 L 1.703125 -7.359375 L 1.859375 -6.515625 L 1.953125 -6.515625 C 2.328125 -7.191406 2.914062 -7.53125 3.71875 -7.53125 C 4.3125 -7.53125 4.765625 -7.351562 5.078125 -7 C 5.390625 -6.65625 5.546875 -6.09375 5.546875 -5.3125 L 5.546875 0 L 4.390625 0 L 4.390625 -5.21875 C 4.390625 -5.695312 4.300781 -6.03125 4.125 -6.21875 C 3.945312 -6.414062 3.691406 -6.515625 3.359375 -6.515625 C 2.972656 -6.515625 2.644531 -6.332031 2.375 -5.96875 C 2.113281 -5.601562 1.984375 -5.113281 1.984375 -4.5 L 1.984375 0 L 0.84375 0 Z M 0.84375 -7.359375 "/></g></g></g><g fill="#000000" fill-opacity="1"><g transform="translate(207.88575, 275.086271)"><g><path d="M 0.140625 -4.46875 L 3.671875 -4.46875 L 3.671875 -3.09375 L 0.140625 -3.09375 Z M 0.140625 -4.46875 "/></g></g></g><g fill="#000000" fill-opacity="1"><g transform="translate(211.705616, 275.086271)"><g><path d="M 2.40625 0.171875 C 1.90625 0.171875 1.457031 0.0195312 1.0625 -0.28125 C 0.664062 -0.582031 0.46875 -1.125 0.46875 -1.90625 C 0.46875 -2.84375 0.785156 -3.488281 1.421875 -3.84375 C 2.066406 -4.195312 2.992188 -4.375 4.203125 -4.375 L 4.203125 -5.3125 C 4.203125 -5.695312 4.117188 -5.992188 3.953125 -6.203125 C 3.785156 -6.410156 3.476562 -6.515625 3.03125 -6.515625 C 2.632812 -6.515625 2.347656 -6.398438 2.171875 -6.171875 C 1.992188 -5.953125 1.90625 -5.675781 1.90625 -5.34375 L 1.90625 -5.1875 L 0.765625 -5.1875 C 0.753906 -5.238281 0.75 -5.335938 0.75 -5.484375 C 0.75 -6.140625 0.960938 -6.644531 1.390625 -7 C 1.828125 -7.351562 2.40625 -7.53125 3.125 -7.53125 C 3.863281 -7.53125 4.414062 -7.351562 4.78125 -7 C 5.15625 -6.644531 5.34375 -6.132812 5.34375 -5.46875 L 5.34375 -1.34375 C 5.34375 -1.1875 5.378906 -1.066406 5.453125 -0.984375 C 5.535156 -0.898438 5.628906 -0.859375 5.734375 -0.859375 L 6.1875 -0.859375 L 6.1875 -0.0625 C 5.976562 0.0507812 5.726562 0.109375 5.4375 0.109375 C 5.132812 0.109375 4.878906 0.03125 4.671875 -0.125 C 4.472656 -0.289062 4.335938 -0.515625 4.265625 -0.796875 L 4.203125 -0.796875 C 4.015625 -0.492188 3.765625 -0.253906 3.453125 -0.078125 C 3.140625 0.0859375 2.789062 0.171875 2.40625 0.171875 Z M 2.671875 -0.859375 C 2.921875 -0.859375 3.160156 -0.925781 3.390625 -1.0625 C 3.628906 -1.207031 3.820312 -1.414062 3.96875 -1.6875 C 4.125 -1.957031 4.203125 -2.285156 4.203125 -2.671875 L 4.203125 -3.34375 C 3.359375 -3.34375 2.726562 -3.242188 2.3125 -3.046875 C 1.894531 -2.859375 1.6875 -2.5 1.6875 -1.96875 C 1.6875 -1.570312 1.765625 -1.285156 1.921875 -1.109375 C 2.085938 -0.941406 2.335938 -0.859375 2.671875 -0.859375 Z M 2.671875 -0.859375 "/></g></g></g><g fill="#000000" fill-opacity="1"><g transform="translate(218.086052, 275.086271)"><g><path d="M 0.84375 -7.359375 L 1.703125 -7.359375 L 1.859375 -6.390625 L 1.953125 -6.390625 C 2.046875 -6.722656 2.195312 -6.992188 2.40625 -7.203125 C 2.613281 -7.421875 2.875 -7.53125 3.1875 -7.53125 C 3.320312 -7.53125 3.441406 -7.515625 3.546875 -7.484375 C 3.648438 -7.453125 3.710938 -7.429688 3.734375 -7.421875 L 3.734375 -6.234375 L 3.359375 -6.234375 C 2.960938 -6.234375 2.632812 -6.09375 2.375 -5.8125 C 2.113281 -5.539062 1.984375 -5.101562 1.984375 -4.5 L 1.984375 0 L 0.84375 0 Z M 0.84375 -7.359375 "/></g></g></g><g fill="#000000" fill-opacity="1"><g transform="translate(221.905918, 275.086271)"><g><path d="M 0.703125 -10.125 L 1.84375 -10.125 L 1.84375 0 L 0.703125 0 Z M 0.703125 -10.125 "/></g></g></g><g fill="#000000" fill-opacity="1"><g transform="translate(224.452491, 275.086271)"><g><path d="M 3.546875 0.171875 C 3.203125 0.171875 2.890625 0.0859375 2.609375 -0.078125 C 2.335938 -0.253906 2.113281 -0.515625 1.9375 -0.859375 L 1.859375 -0.859375 L 1.703125 0 L 0.84375 0 L 0.84375 -10.125 L 1.984375 -10.125 L 1.984375 -6.65625 L 2.0625 -6.65625 C 2.175781 -6.925781 2.375 -7.140625 2.65625 -7.296875 C 2.9375 -7.453125 3.257812 -7.53125 3.625 -7.53125 C 4.28125 -7.53125 4.8125 -7.207031 5.21875 -6.5625 C 5.625 -5.914062 5.828125 -4.960938 5.828125 -3.703125 C 5.828125 -2.390625 5.628906 -1.414062 5.234375 -0.78125 C 4.835938 -0.144531 4.273438 0.171875 3.546875 0.171875 Z M 3.296875 -0.859375 C 3.742188 -0.859375 4.078125 -1.054688 4.296875 -1.453125 C 4.515625 -1.859375 4.625 -2.515625 4.625 -3.421875 L 4.625 -3.953125 C 4.625 -4.859375 4.515625 -5.507812 4.296875 -5.90625 C 4.078125 -6.3125 3.742188 -6.515625 3.296875 -6.515625 C 2.421875 -6.515625 1.984375 -5.640625 1.984375 -3.890625 L 1.984375 -3.421875 C 1.984375 -1.710938 2.421875 -0.859375 3.296875 -0.859375 Z M 3.296875 -0.859375 "/></g></g></g><g fill="#000000" fill-opacity="1"><g transform="translate(230.832927, 275.086271)"><g><path d="M 3.375 0.171875 C 2.4375 0.171875 1.738281 -0.132812 1.28125 -0.75 C 0.820312 -1.363281 0.59375 -2.34375 0.59375 -3.6875 C 0.59375 -5 0.816406 -5.96875 1.265625 -6.59375 C 1.722656 -7.21875 2.421875 -7.53125 3.359375 -7.53125 C 4.179688 -7.53125 4.789062 -7.253906 5.1875 -6.703125 C 5.582031 -6.160156 5.78125 -5.285156 5.78125 -4.078125 L 5.78125 -3.34375 L 1.796875 -3.34375 C 1.804688 -2.488281 1.9375 -1.859375 2.1875 -1.453125 C 2.445312 -1.054688 2.851562 -0.859375 3.40625 -0.859375 C 3.78125 -0.859375 4.078125 -1.003906 4.296875 -1.296875 C 4.523438 -1.597656 4.640625 -2 4.640625 -2.5 L 5.78125 -2.5 C 5.78125 -1.6875 5.554688 -1.035156 5.109375 -0.546875 C 4.671875 -0.0664062 4.09375 0.171875 3.375 0.171875 Z M 4.578125 -4.375 C 4.578125 -5.070312 4.472656 -5.601562 4.265625 -5.96875 C 4.066406 -6.332031 3.765625 -6.515625 3.359375 -6.515625 C 2.867188 -6.515625 2.5 -6.335938 2.25 -5.984375 C 2 -5.628906 1.851562 -5.09375 1.8125 -4.375 Z M 4.578125 -4.375 "/></g></g></g><g fill="#000000" fill-opacity="1"><g transform="translate(237.213362, 275.086271)"><g><path d="M 0.84375 -7.359375 L 1.703125 -7.359375 L 1.859375 -6.390625 L 1.953125 -6.390625 C 2.046875 -6.722656 2.195312 -6.992188 2.40625 -7.203125 C 2.613281 -7.421875 2.875 -7.53125 3.1875 -7.53125 C 3.320312 -7.53125 3.441406 -7.515625 3.546875 -7.484375 C 3.648438 -7.453125 3.710938 -7.429688 3.734375 -7.421875 L 3.734375 -6.234375 L 3.359375 -6.234375 C 2.960938 -6.234375 2.632812 -6.09375 2.375 -5.8125 C 2.113281 -5.539062 1.984375 -5.101562 1.984375 -4.5 L 1.984375 0 L 0.84375 0 Z M 0.84375 -7.359375 "/></g></g></g><g fill="#000000" fill-opacity="1"><g transform="translate(241.033228, 275.086271)"><g><path d="M 2 2.546875 C 1.425781 2.546875 0.976562 2.378906 0.65625 2.046875 C 0.34375 1.710938 0.1875 1.296875 0.1875 0.796875 C 0.1875 0.429688 0.269531 0.109375 0.4375 -0.171875 C 0.613281 -0.460938 0.847656 -0.660156 1.140625 -0.765625 C 0.953125 -0.890625 0.800781 -1.050781 0.6875 -1.25 C 0.582031 -1.445312 0.53125 -1.65625 0.53125 -1.875 C 0.53125 -2.164062 0.625 -2.421875 0.8125 -2.640625 C 1 -2.867188 1.25 -3.039062 1.5625 -3.15625 C 1 -3.613281 0.71875 -4.242188 0.71875 -5.046875 C 0.71875 -5.828125 0.929688 -6.4375 1.359375 -6.875 C 1.785156 -7.3125 2.375 -7.53125 3.125 -7.53125 C 3.507812 -7.53125 3.863281 -7.441406 4.1875 -7.265625 C 4.488281 -7.421875 4.707031 -7.601562 4.84375 -7.8125 C 4.976562 -8.03125 5.0625 -8.273438 5.09375 -8.546875 L 6.109375 -8.546875 C 6.109375 -8.097656 6 -7.71875 5.78125 -7.40625 C 5.5625 -7.09375 5.257812 -6.890625 4.875 -6.796875 C 5.3125 -6.335938 5.53125 -5.753906 5.53125 -5.046875 C 5.53125 -4.296875 5.316406 -3.695312 4.890625 -3.25 C 4.460938 -2.8125 3.890625 -2.585938 3.171875 -2.578125 L 2.40625 -2.578125 C 2.21875 -2.578125 2.054688 -2.515625 1.921875 -2.390625 C 1.796875 -2.265625 1.734375 -2.109375 1.734375 -1.921875 C 1.734375 -1.742188 1.796875 -1.585938 1.921875 -1.453125 C 2.054688 -1.328125 2.21875 -1.265625 2.40625 -1.265625 L 4.515625 -1.265625 C 5.035156 -1.265625 5.453125 -1.097656 5.765625 -0.765625 C 6.085938 -0.429688 6.25 -0.0195312 6.25 0.46875 C 6.25 1.070312 6.054688 1.566406 5.671875 1.953125 C 5.296875 2.347656 4.769531 2.546875 4.09375 2.546875 Z M 3.109375 -3.53125 C 3.503906 -3.53125 3.8125 -3.664062 4.03125 -3.9375 C 4.257812 -4.207031 4.375 -4.578125 4.375 -5.046875 C 4.375 -5.546875 4.257812 -5.925781 4.03125 -6.1875 C 3.8125 -6.445312 3.503906 -6.578125 3.109375 -6.578125 C 2.703125 -6.578125 2.390625 -6.441406 2.171875 -6.171875 C 1.960938 -5.898438 1.859375 -5.523438 1.859375 -5.046875 C 1.859375 -4.554688 1.960938 -4.179688 2.171875 -3.921875 C 2.390625 -3.660156 2.703125 -3.53125 3.109375 -3.53125 Z M 4.21875 1.546875 C 4.457031 1.546875 4.660156 1.460938 4.828125 1.296875 C 4.992188 1.128906 5.078125 0.925781 5.078125 0.6875 C 5.078125 0.4375 5.003906 0.226562 4.859375 0.0625 C 4.710938 -0.09375 4.5 -0.171875 4.21875 -0.171875 L 2.1875 -0.171875 C 1.90625 -0.171875 1.691406 -0.09375 1.546875 0.0625 C 1.398438 0.226562 1.328125 0.4375 1.328125 0.6875 C 1.328125 0.9375 1.398438 1.140625 1.546875 1.296875 C 1.703125 1.460938 1.914062 1.546875 2.1875 1.546875 Z M 4.21875 1.546875 "/></g></g></g><g fill="#000000" fill-opacity="1"><g transform="translate(247.413663, 275.086271)"><g><path d="M 0.890625 -1.515625 L 2.296875 -1.515625 L 2.296875 0 L 0.890625 0 Z M 0.890625 -1.515625 "/></g></g></g><g fill="#000000" fill-opacity="1"><g transform="translate(250.603887, 275.086271)"><g><path d="M 2.40625 0.171875 C 1.90625 0.171875 1.457031 0.0195312 1.0625 -0.28125 C 0.664062 -0.582031 0.46875 -1.125 0.46875 -1.90625 C 0.46875 -2.84375 0.785156 -3.488281 1.421875 -3.84375 C 2.066406 -4.195312 2.992188 -4.375 4.203125 -4.375 L 4.203125 -5.3125 C 4.203125 -5.695312 4.117188 -5.992188 3.953125 -6.203125 C 3.785156 -6.410156 3.476562 -6.515625 3.03125 -6.515625 C 2.632812 -6.515625 2.347656 -6.398438 2.171875 -6.171875 C 1.992188 -5.953125 1.90625 -5.675781 1.90625 -5.34375 L 1.90625 -5.1875 L 0.765625 -5.1875 C 0.753906 -5.238281 0.75 -5.335938 0.75 -5.484375 C 0.75 -6.140625 0.960938 -6.644531 1.390625 -7 C 1.828125 -7.351562 2.40625 -7.53125 3.125 -7.53125 C 3.863281 -7.53125 4.414062 -7.351562 4.78125 -7 C 5.15625 -6.644531 5.34375 -6.132812 5.34375 -5.46875 L 5.34375 -1.34375 C 5.34375 -1.1875 5.378906 -1.066406 5.453125 -0.984375 C 5.535156 -0.898438 5.628906 -0.859375 5.734375 -0.859375 L 6.1875 -0.859375 L 6.1875 -0.0625 C 5.976562 0.0507812 5.726562 0.109375 5.4375 0.109375 C 5.132812 0.109375 4.878906 0.03125 4.671875 -0.125 C 4.472656 -0.289062 4.335938 -0.515625 4.265625 -0.796875 L 4.203125 -0.796875 C 4.015625 -0.492188 3.765625 -0.253906 3.453125 -0.078125 C 3.140625 0.0859375 2.789062 0.171875 2.40625 0.171875 Z M 2.671875 -0.859375 C 2.921875 -0.859375 3.160156 -0.925781 3.390625 -1.0625 C 3.628906 -1.207031 3.820312 -1.414062 3.96875 -1.6875 C 4.125 -1.957031 4.203125 -2.285156 4.203125 -2.671875 L 4.203125 -3.34375 C 3.359375 -3.34375 2.726562 -3.242188 2.3125 -3.046875 C 1.894531 -2.859375 1.6875 -2.5 1.6875 -1.96875 C 1.6875 -1.570312 1.765625 -1.285156 1.921875 -1.109375 C 2.085938 -0.941406 2.335938 -0.859375 2.671875 -0.859375 Z M 2.671875 -0.859375 "/></g></g></g><g fill="#000000" fill-opacity="1"><g transform="translate(256.984322, 275.086271)"><g><path d="M 2.140625 0.140625 C 1.671875 0.140625 1.332031 -0.0195312 1.125 -0.34375 C 0.925781 -0.664062 0.828125 -1.066406 0.828125 -1.546875 L 0.828125 -6.34375 L 0.203125 -6.34375 L 0.203125 -7.359375 L 0.828125 -7.359375 L 1.078125 -9.40625 L 1.96875 -9.40625 L 1.96875 -7.359375 L 2.96875 -7.359375 L 2.96875 -6.34375 L 1.96875 -6.34375 L 1.96875 -1.53125 C 1.96875 -1.082031 2.1875 -0.859375 2.625 -0.859375 L 2.96875 -0.859375 L 2.96875 -0.0625 C 2.863281 0 2.734375 0.046875 2.578125 0.078125 C 2.429688 0.117188 2.285156 0.140625 2.140625 0.140625 Z M 2.140625 0.140625 "/></g></g></g><g fill="#000000" fill-opacity="1"><g transform="translate(95.7384, 138.023254)"><g><path d="M 1.5625 -2.640625 C 1.207031 -1.960938 0.75 -1.5 0.1875 -1.25 C -0.375 -1 -1.003906 -1.0625 -1.703125 -1.4375 L -1.90625 -1.546875 L -1.421875 -2.46875 L -1.21875 -2.34375 C -0.8125 -2.125 -0.4375 -2.082031 -0.09375 -2.21875 C 0.238281 -2.351562 0.515625 -2.625 0.734375 -3.03125 C 0.984375 -3.488281 1.078125 -3.890625 1.015625 -4.234375 C 0.953125 -4.585938 0.738281 -4.863281 0.375 -5.0625 C 0.125 -5.195312 -0.113281 -5.234375 -0.34375 -5.171875 C -0.570312 -5.117188 -0.785156 -5.019531 -0.984375 -4.875 C -1.179688 -4.726562 -1.429688 -4.503906 -1.734375 -4.203125 C -2.109375 -3.859375 -2.429688 -3.585938 -2.703125 -3.390625 C -2.984375 -3.191406 -3.300781 -3.066406 -3.65625 -3.015625 C -4.007812 -2.960938 -4.394531 -3.050781 -4.8125 -3.28125 C -5.40625 -3.59375 -5.75 -4.035156 -5.84375 -4.609375 C -5.945312 -5.179688 -5.828125 -5.785156 -5.484375 -6.421875 C -5.148438 -7.054688 -4.71875 -7.484375 -4.1875 -7.703125 C -3.664062 -7.929688 -3.078125 -7.875 -2.421875 -7.53125 L -2.296875 -7.453125 L -2.78125 -6.546875 L -2.9375 -6.640625 C -3.269531 -6.816406 -3.59375 -6.84375 -3.90625 -6.71875 C -4.226562 -6.59375 -4.484375 -6.359375 -4.671875 -6.015625 C -4.867188 -5.628906 -4.953125 -5.273438 -4.921875 -4.953125 C -4.890625 -4.640625 -4.71875 -4.398438 -4.40625 -4.234375 C -4.164062 -4.109375 -3.929688 -4.070312 -3.703125 -4.125 C -3.484375 -4.1875 -3.273438 -4.289062 -3.078125 -4.4375 C -2.890625 -4.59375 -2.644531 -4.804688 -2.34375 -5.078125 C -1.957031 -5.441406 -1.628906 -5.722656 -1.359375 -5.921875 C -1.085938 -6.117188 -0.773438 -6.242188 -0.421875 -6.296875 C -0.078125 -6.347656 0.296875 -6.265625 0.703125 -6.046875 C 1.429688 -5.660156 1.851562 -5.171875 1.96875 -4.578125 C 2.082031 -3.992188 1.945312 -3.347656 1.5625 -2.640625 Z M 1.5625 -2.640625 "/></g></g></g><g fill="#000000" fill-opacity="1"><g transform="translate(98.589189, 132.70905)"><g><path d="M -4.71875 -3.640625 L -4.34375 -4.234375 L -3.6875 -4 L -3.671875 -4.046875 C -3.828125 -4.304688 -3.90625 -4.566406 -3.90625 -4.828125 C -3.914062 -5.085938 -3.851562 -5.335938 -3.71875 -5.578125 C -3.40625 -6.078125 -2.945312 -6.332031 -2.34375 -6.34375 C -1.75 -6.351562 -1.003906 -6.085938 -0.109375 -5.546875 C 0.765625 -5.015625 1.34375 -4.472656 1.625 -3.921875 C 1.90625 -3.367188 1.910156 -2.867188 1.640625 -2.421875 C 1.484375 -2.171875 1.296875 -1.976562 1.078125 -1.84375 C 0.859375 -1.707031 0.640625 -1.65625 0.421875 -1.6875 L 0.390625 -1.625 L 2.5 -0.34375 L 2.015625 0.4375 Z M 0.78125 -2.625 C 0.96875 -2.9375 0.96875 -3.25 0.78125 -3.5625 C 0.59375 -3.882812 0.1875 -4.234375 -0.4375 -4.609375 L -0.796875 -4.828125 C -1.410156 -5.203125 -1.898438 -5.398438 -2.265625 -5.421875 C -2.628906 -5.441406 -2.90625 -5.296875 -3.09375 -4.984375 C -3.457031 -4.378906 -3.054688 -3.71875 -1.890625 -3 L -1.53125 -2.78125 C -0.351562 -2.070312 0.414062 -2.019531 0.78125 -2.625 Z M 0.78125 -2.625 "/></g></g></g><g fill="#000000" fill-opacity="1"><g transform="translate(101.18645, 128.418036)"><g><path d="M 1.546875 -2.046875 C 1.148438 -1.460938 0.640625 -1.164062 0.015625 -1.15625 C -0.597656 -1.15625 -1.335938 -1.445312 -2.203125 -2.03125 C -3.078125 -2.625 -3.625 -3.207031 -3.84375 -3.78125 C -4.070312 -4.351562 -3.988281 -4.929688 -3.59375 -5.515625 C -3.207031 -6.085938 -2.703125 -6.382812 -2.078125 -6.40625 C -1.453125 -6.425781 -0.703125 -6.140625 0.171875 -5.546875 C 1.035156 -4.960938 1.578125 -4.375 1.796875 -3.78125 C 2.015625 -3.195312 1.929688 -2.617188 1.546875 -2.046875 Z M 0.875 -2.515625 C 1.300781 -3.148438 0.941406 -3.847656 -0.203125 -4.609375 L -0.546875 -4.859375 C -1.691406 -5.617188 -2.476562 -5.679688 -2.90625 -5.046875 C -3.332031 -4.410156 -2.972656 -3.710938 -1.828125 -2.953125 L -1.484375 -2.703125 C -0.335938 -1.941406 0.445312 -1.878906 0.875 -2.515625 Z M 0.875 -2.515625 "/></g></g></g><g fill="#000000" fill-opacity="1"><g transform="translate(104.021879, 124.254516)"><g><path d="M -4.390625 -4.046875 L -3.96875 -4.609375 L -3.25 -4.25 L -3.21875 -4.3125 C -3.382812 -4.53125 -3.488281 -4.753906 -3.53125 -4.984375 C -3.570312 -5.222656 -3.519531 -5.441406 -3.375 -5.640625 C -3.3125 -5.722656 -3.242188 -5.789062 -3.171875 -5.84375 C -3.109375 -5.894531 -3.0625 -5.9375 -3.03125 -5.96875 L -2.265625 -5.40625 L -2.453125 -5.15625 C -2.640625 -4.894531 -2.703125 -4.609375 -2.640625 -4.296875 C -2.585938 -3.992188 -2.363281 -3.703125 -1.96875 -3.421875 L 0.9375 -1.28125 L 0.390625 -0.546875 Z M -4.390625 -4.046875 "/></g></g></g><g fill="#000000" fill-opacity="1"><g transform="translate(105.800683, 121.826027)"><g><path d="M 1.140625 -1.296875 C 0.910156 -0.992188 0.640625 -0.859375 0.328125 -0.890625 C 0.0234375 -0.921875 -0.273438 -1.054688 -0.578125 -1.296875 L -3.625 -3.65625 L -3.9375 -3.25 L -4.59375 -3.75 L -4.28125 -4.15625 L -5.453125 -5.328125 L -5.015625 -5.90625 L -3.71875 -4.890625 L -3.21875 -5.515625 L -2.5625 -5.015625 L -3.0625 -4.390625 L 0 -2.015625 C 0.28125 -1.796875 0.53125 -1.820312 0.75 -2.09375 L 0.921875 -2.3125 L 1.4375 -1.921875 C 1.414062 -1.828125 1.378906 -1.722656 1.328125 -1.609375 C 1.273438 -1.492188 1.210938 -1.390625 1.140625 -1.296875 Z M 1.140625 -1.296875 "/></g></g></g><g fill="#000000" fill-opacity="1"><g transform="translate(107.250574, 119.850553)"><g><path d="M -4.0625 -4.375 L -3.609375 -4.90625 L -3 -4.546875 L -2.953125 -4.59375 C -3.191406 -5.164062 -3.109375 -5.6875 -2.703125 -6.15625 C -2.296875 -6.632812 -1.804688 -6.769531 -1.234375 -6.5625 C -1.347656 -6.851562 -1.375 -7.144531 -1.3125 -7.4375 C -1.257812 -7.726562 -1.140625 -7.984375 -0.953125 -8.203125 C -0.347656 -8.910156 0.410156 -8.878906 1.328125 -8.109375 L 4.5625 -5.328125 L 3.96875 -4.625 L 0.78125 -7.359375 C 0.488281 -7.609375 0.238281 -7.726562 0.03125 -7.71875 C -0.164062 -7.71875 -0.34375 -7.628906 -0.5 -7.453125 C -0.6875 -7.242188 -0.734375 -6.96875 -0.640625 -6.625 C -0.546875 -6.28125 -0.304688 -5.945312 0.078125 -5.625 L 2.8125 -3.28125 L 2.203125 -2.578125 L -0.984375 -5.3125 C -1.273438 -5.5625 -1.519531 -5.679688 -1.71875 -5.671875 C -1.925781 -5.671875 -2.109375 -5.582031 -2.265625 -5.40625 C -2.441406 -5.1875 -2.488281 -4.898438 -2.40625 -4.546875 C -2.320312 -4.203125 -2.085938 -3.867188 -1.703125 -3.546875 L 1.03125 -1.203125 L 0.4375 -0.515625 Z M -4.0625 -4.375 "/></g></g></g><g fill="#000000" fill-opacity="1"><g transform="translate(112.181828, 114.143827)"><g><path d="M 1.984375 -1.859375 C 1.460938 -1.316406 0.894531 -1.082031 0.28125 -1.15625 C -0.332031 -1.238281 -1.03125 -1.65625 -1.8125 -2.40625 C -2.5625 -3.132812 -2.988281 -3.804688 -3.09375 -4.421875 C -3.207031 -5.046875 -3.003906 -5.625 -2.484375 -6.15625 C -2.023438 -6.632812 -1.523438 -6.832031 -0.984375 -6.75 C -0.441406 -6.675781 0.175781 -6.300781 0.875 -5.625 L 1.296875 -5.21875 L -0.9375 -2.90625 C -0.425781 -2.4375 0.0078125 -2.164062 0.375 -2.09375 C 0.75 -2.019531 1.09375 -2.140625 1.40625 -2.453125 C 1.613281 -2.671875 1.691406 -2.925781 1.640625 -3.21875 C 1.597656 -3.519531 1.429688 -3.8125 1.140625 -4.09375 L 1.78125 -4.75 C 2.257812 -4.289062 2.507812 -3.796875 2.53125 -3.265625 C 2.5625 -2.742188 2.378906 -2.273438 1.984375 -1.859375 Z M 0.03125 -5.09375 C -0.363281 -5.488281 -0.722656 -5.726562 -1.046875 -5.8125 C -1.378906 -5.894531 -1.660156 -5.816406 -1.890625 -5.578125 C -2.160156 -5.296875 -2.265625 -4.984375 -2.203125 -4.640625 C -2.140625 -4.304688 -1.910156 -3.921875 -1.515625 -3.484375 Z M 0.03125 -5.09375 "/></g></g></g><g fill="#000000" fill-opacity="1"><g transform="translate(115.667881, 110.537463)"><g><path d="M 1.765625 -1.453125 C 1.335938 -1.054688 0.832031 -0.9375 0.25 -1.09375 C -0.332031 -1.25 -0.984375 -1.710938 -1.703125 -2.484375 C -2.398438 -3.222656 -2.804688 -3.894531 -2.921875 -4.5 C -3.035156 -5.101562 -2.898438 -5.582031 -2.515625 -5.9375 C -2.304688 -6.132812 -2.078125 -6.265625 -1.828125 -6.328125 C -1.585938 -6.398438 -1.351562 -6.382812 -1.125 -6.28125 L -1.09375 -6.328125 L -2.984375 -8.359375 L -2.296875 -9 L 3.265625 -3.0625 L 2.75 -2.578125 L 2.1875 -2.984375 L 2.140625 -2.953125 C 2.234375 -2.660156 2.238281 -2.382812 2.15625 -2.125 C 2.082031 -1.863281 1.953125 -1.640625 1.765625 -1.453125 Z M 1.34375 -2.203125 C 1.851562 -2.679688 1.640625 -3.421875 0.703125 -4.421875 L 0.4375 -4.703125 C -0.519531 -5.722656 -1.253906 -5.992188 -1.765625 -5.515625 C -2.035156 -5.265625 -2.125 -4.960938 -2.03125 -4.609375 C -1.9375 -4.253906 -1.640625 -3.8125 -1.140625 -3.28125 L -0.84375 -2.96875 C -0.34375 -2.4375 0.078125 -2.113281 0.421875 -2 C 0.765625 -1.882812 1.070312 -1.953125 1.34375 -2.203125 Z M 1.34375 -2.203125 "/></g></g></g><g fill="#000000" fill-opacity="1"><g transform="translate(119.370083, 107.101756)"><g><path d="M -4.9375 -6.5 L -4.25 -7.109375 L -3.53125 -6.28125 L -4.21875 -5.671875 Z M -3.484375 -4.828125 L -2.796875 -5.4375 L 1.109375 -0.984375 L 0.421875 -0.375 Z M -3.484375 -4.828125 "/></g></g></g><g fill="#000000" fill-opacity="1"><g transform="translate(120.840146, 105.787287)"><g><path d="M -0.046875 -0.53125 L -1 -5.78125 L -2.875 -4.25 L -3.390625 -4.875 L -0.53125 -7.21875 L -0.265625 -6.890625 L 0.671875 -1.625 L 2.796875 -3.375 L 3.328125 -2.734375 L 0.234375 -0.1875 Z M -0.046875 -0.53125 "/></g></g></g><g fill="#000000" fill-opacity="1"><g transform="translate(124.360583, 102.92201)"><g><path d="M -4.515625 -6.796875 L -3.796875 -7.359375 L -3.125 -6.484375 L -3.84375 -5.921875 Z M -3.15625 -5.03125 L -2.4375 -5.59375 L 1.171875 -0.90625 L 0.453125 -0.34375 Z M -3.15625 -5.03125 "/></g></g></g><g fill="#000000" fill-opacity="1"><g transform="translate(125.902278, 101.701263)"><g><path d="M -2.90625 -5.203125 L -2.328125 -5.609375 L -1.828125 -5.125 L -1.78125 -5.15625 C -1.84375 -5.789062 -1.613281 -6.296875 -1.09375 -6.671875 C -0.707031 -6.941406 -0.328125 -7.039062 0.046875 -6.96875 C 0.421875 -6.894531 0.789062 -6.597656 1.15625 -6.078125 L 3.640625 -2.609375 L 2.875 -2.0625 L 0.421875 -5.484375 C 0.203125 -5.796875 -0.00390625 -5.96875 -0.203125 -6 C -0.410156 -6.039062 -0.625 -5.984375 -0.84375 -5.828125 C -1.101562 -5.640625 -1.234375 -5.363281 -1.234375 -5 C -1.234375 -4.644531 -1.085938 -4.265625 -0.796875 -3.859375 L 1.296875 -0.921875 L 0.546875 -0.390625 Z M -2.90625 -5.203125 "/></g></g></g><g fill="#000000" fill-opacity="1"><g transform="translate(130.016349, 98.781279)"><g/></g></g><g fill="#000000" fill-opacity="1"><g transform="translate(132.113394, 97.395877)"><g><path d="M -3.875 -7.1875 L -3.09375 -7.6875 L -2.515625 -6.75 L -3.296875 -6.25 Z M -2.6875 -5.3125 L -1.90625 -5.8125 L 1.25 -0.796875 L 0.46875 -0.296875 Z M -2.6875 -5.3125 "/></g></g></g><g fill="#000000" fill-opacity="1"><g transform="translate(133.716113, 96.304317)"><g><path d="M -2.34375 -5.484375 L -1.71875 -5.828125 L -1.296875 -5.28125 L -1.234375 -5.3125 C -1.253906 -5.9375 -0.992188 -6.398438 -0.453125 -6.703125 C 0.0976562 -7.023438 0.597656 -6.988281 1.046875 -6.59375 C 1.046875 -6.90625 1.125 -7.1875 1.28125 -7.4375 C 1.4375 -7.695312 1.640625 -7.898438 1.890625 -8.046875 C 2.691406 -8.503906 3.390625 -8.210938 3.984375 -7.171875 L 6.09375 -3.46875 L 5.296875 -3.015625 L 3.21875 -6.671875 C 3.03125 -7.003906 2.835938 -7.203125 2.640625 -7.265625 C 2.441406 -7.328125 2.238281 -7.296875 2.03125 -7.171875 C 1.789062 -7.035156 1.65625 -6.789062 1.625 -6.4375 C 1.601562 -6.09375 1.71875 -5.703125 1.96875 -5.265625 L 3.75 -2.125 L 2.953125 -1.671875 L 0.875 -5.328125 C 0.6875 -5.660156 0.492188 -5.859375 0.296875 -5.921875 C 0.0976562 -5.984375 -0.101562 -5.957031 -0.3125 -5.84375 C -0.550781 -5.707031 -0.6875 -5.460938 -0.71875 -5.109375 C -0.75 -4.753906 -0.640625 -4.359375 -0.390625 -3.921875 L 1.390625 -0.78125 L 0.578125 -0.328125 Z M -2.34375 -5.484375 "/></g></g></g><g fill="#000000" fill-opacity="1"><g transform="translate(140.327487, 92.615253)"><g/></g></g><g fill="#000000" fill-opacity="1"><g transform="translate(142.503028, 91.464141)"><g><path d="M -2.46875 -7.375 L -1.5625 -7.78125 L -0.1875 -4.75 L 2.640625 -6.03125 L 1.265625 -9.0625 L 2.171875 -9.46875 L 5.359375 -2.421875 L 4.453125 -2.015625 L 3.015625 -5.203125 L 0.1875 -3.921875 L 1.625 -0.734375 L 0.71875 -0.328125 Z M -2.46875 -7.375 "/></g></g></g><g fill="#000000" fill-opacity="1"><g transform="translate(148.460701, 88.791829)"><g><path d="M 2.578125 -0.859375 C 1.878906 -0.585938 1.265625 -0.613281 0.734375 -0.9375 C 0.210938 -1.257812 -0.238281 -1.925781 -0.625 -2.9375 C -1.007812 -3.925781 -1.117188 -4.71875 -0.953125 -5.3125 C -0.796875 -5.914062 -0.367188 -6.351562 0.328125 -6.625 C 0.941406 -6.863281 1.476562 -6.835938 1.9375 -6.546875 C 2.40625 -6.253906 2.8125 -5.648438 3.15625 -4.734375 L 3.375 -4.171875 L 0.375 -3.015625 C 0.632812 -2.378906 0.914062 -1.945312 1.21875 -1.71875 C 1.53125 -1.5 1.890625 -1.46875 2.296875 -1.625 C 2.578125 -1.726562 2.757812 -1.925781 2.84375 -2.21875 C 2.9375 -2.507812 2.910156 -2.84375 2.765625 -3.21875 L 3.625 -3.546875 C 3.851562 -2.941406 3.867188 -2.390625 3.671875 -1.890625 C 3.484375 -1.398438 3.117188 -1.054688 2.578125 -0.859375 Z M 2.171875 -4.609375 C 1.972656 -5.128906 1.738281 -5.492188 1.46875 -5.703125 C 1.207031 -5.921875 0.925781 -5.972656 0.625 -5.859375 C 0.257812 -5.722656 0.0390625 -5.484375 -0.03125 -5.140625 C -0.113281 -4.804688 -0.0703125 -4.359375 0.09375 -3.796875 Z M 2.171875 -4.609375 "/></g></g></g><g fill="#000000" fill-opacity="1"><g transform="translate(153.168831, 86.996621)"><g><path d="M -1.28125 -5.828125 L -0.625 -6.046875 L -0.234375 -5.34375 L -0.171875 -5.359375 C -0.191406 -5.648438 -0.148438 -5.898438 -0.046875 -6.109375 C 0.0546875 -6.328125 0.226562 -6.476562 0.46875 -6.5625 C 0.570312 -6.59375 0.664062 -6.609375 0.75 -6.609375 C 0.832031 -6.609375 0.894531 -6.609375 0.9375 -6.609375 L 1.234375 -5.71875 L 0.9375 -5.625 C 0.625 -5.519531 0.40625 -5.328125 0.28125 -5.046875 C 0.164062 -4.765625 0.1875 -4.394531 0.34375 -3.9375 L 1.515625 -0.515625 L 0.640625 -0.21875 Z M -1.28125 -5.828125 "/></g></g></g><g fill="#000000" fill-opacity="1"><g transform="translate(155.988262, 86.015827)"><g><path d="M 0.15625 -0.5 L 1.296875 -5.71875 L -1.015625 -5.03125 L -1.25 -5.8125 L 2.296875 -6.875 L 2.40625 -6.46875 L 1.25 -1.25 L 3.890625 -2.046875 L 4.125 -1.25 L 0.28125 -0.078125 Z M 0.15625 -0.5 "/></g></g></g><g fill="#000000" fill-opacity="1"><g transform="translate(160.298123, 84.707982)"><g><path d="M 2.671875 -0.515625 C 1.941406 -0.335938 1.332031 -0.441406 0.84375 -0.828125 C 0.363281 -1.210938 -0.00390625 -1.929688 -0.265625 -2.984375 C -0.523438 -4.003906 -0.535156 -4.804688 -0.296875 -5.390625 C -0.0664062 -5.972656 0.410156 -6.351562 1.140625 -6.53125 C 1.773438 -6.695312 2.300781 -6.609375 2.71875 -6.265625 C 3.144531 -5.921875 3.476562 -5.273438 3.71875 -4.328125 L 3.859375 -3.75 L 0.734375 -2.953125 C 0.910156 -2.296875 1.140625 -1.832031 1.421875 -1.5625 C 1.703125 -1.300781 2.054688 -1.226562 2.484375 -1.34375 C 2.773438 -1.414062 2.976562 -1.585938 3.09375 -1.859375 C 3.21875 -2.128906 3.234375 -2.460938 3.140625 -2.859375 L 4.03125 -3.09375 C 4.1875 -2.457031 4.132812 -1.90625 3.875 -1.4375 C 3.625 -0.96875 3.222656 -0.660156 2.671875 -0.515625 Z M 2.71875 -4.3125 C 2.582031 -4.863281 2.394531 -5.257812 2.15625 -5.5 C 1.925781 -5.738281 1.65625 -5.816406 1.34375 -5.734375 C 0.957031 -5.640625 0.703125 -5.429688 0.578125 -5.109375 C 0.453125 -4.796875 0.441406 -4.347656 0.546875 -3.765625 Z M 2.71875 -4.3125 "/></g></g></g><g fill="#000000" fill-opacity="1"><g transform="translate(165.161819, 83.481996)"><g><path d="M -0.5 -5.9375 L 0.1875 -6.078125 L 0.4375 -5.421875 L 0.5 -5.4375 C 0.695312 -6.039062 1.113281 -6.40625 1.75 -6.53125 C 2.207031 -6.625 2.585938 -6.554688 2.890625 -6.328125 C 3.191406 -6.109375 3.40625 -5.6875 3.53125 -5.0625 L 4.375 -0.875 L 3.46875 -0.6875 L 2.640625 -4.8125 C 2.566406 -5.1875 2.441406 -5.429688 2.265625 -5.546875 C 2.097656 -5.671875 1.882812 -5.707031 1.625 -5.65625 C 1.3125 -5.59375 1.078125 -5.398438 0.921875 -5.078125 C 0.773438 -4.753906 0.753906 -4.347656 0.859375 -3.859375 L 1.5625 -0.3125 L 0.65625 -0.125 Z M -0.5 -5.9375 "/></g></g></g><g fill="#000000" fill-opacity="1"><g transform="translate(170.112736, 82.512994)"><g/></g></g><g fill="#000000" fill-opacity="1"><g transform="translate(172.554919, 82.09102)"><g><path d="M 2.28125 -0.140625 C 1.695312 -0.0664062 1.21875 -0.265625 0.84375 -0.734375 C 0.46875 -1.203125 0.210938 -1.960938 0.078125 -3.015625 C -0.046875 -4.023438 0.0195312 -4.804688 0.28125 -5.359375 C 0.539062 -5.910156 0.929688 -6.222656 1.453125 -6.296875 C 1.742188 -6.328125 2.003906 -6.289062 2.234375 -6.1875 C 2.472656 -6.09375 2.65625 -5.945312 2.78125 -5.75 L 2.828125 -5.75 L 2.484375 -8.515625 L 3.421875 -8.625 L 4.4375 -0.546875 L 3.734375 -0.46875 L 3.53125 -1.140625 L 3.46875 -1.125 C 3.363281 -0.84375 3.207031 -0.613281 3 -0.4375 C 2.789062 -0.269531 2.550781 -0.171875 2.28125 -0.140625 Z M 2.390625 -1 C 3.078125 -1.082031 3.332031 -1.804688 3.15625 -3.171875 L 3.109375 -3.53125 C 2.929688 -4.925781 2.5 -5.582031 1.8125 -5.5 C 1.445312 -5.445312 1.195312 -5.25 1.0625 -4.90625 C 0.9375 -4.570312 0.921875 -4.039062 1.015625 -3.3125 L 1.0625 -2.90625 C 1.15625 -2.175781 1.304688 -1.660156 1.515625 -1.359375 C 1.734375 -1.066406 2.023438 -0.945312 2.390625 -1 Z M 2.390625 -1 "/></g></g></g><g fill="#000000" fill-opacity="1"><g transform="translate(177.531607, 81.46559)"><g><path d="M 2.734375 -0.0625 C 1.984375 -0.0078125 1.398438 -0.210938 0.984375 -0.671875 C 0.578125 -1.140625 0.332031 -1.910156 0.25 -2.984375 C 0.164062 -4.035156 0.289062 -4.828125 0.625 -5.359375 C 0.957031 -5.898438 1.5 -6.195312 2.25 -6.25 C 2.894531 -6.300781 3.394531 -6.117188 3.75 -5.703125 C 4.101562 -5.296875 4.316406 -4.601562 4.390625 -3.625 L 4.4375 -3.046875 L 1.234375 -2.796875 C 1.296875 -2.109375 1.441406 -1.609375 1.671875 -1.296875 C 1.910156 -0.992188 2.242188 -0.859375 2.671875 -0.890625 C 2.972656 -0.910156 3.203125 -1.046875 3.359375 -1.296875 C 3.523438 -1.554688 3.59375 -1.890625 3.5625 -2.296875 L 4.484375 -2.375 C 4.535156 -1.71875 4.394531 -1.175781 4.0625 -0.75 C 3.738281 -0.332031 3.296875 -0.101562 2.734375 -0.0625 Z M 3.40625 -3.78125 C 3.363281 -4.34375 3.25 -4.757812 3.0625 -5.03125 C 2.875 -5.3125 2.625 -5.441406 2.3125 -5.421875 C 1.914062 -5.390625 1.628906 -5.222656 1.453125 -4.921875 C 1.273438 -4.628906 1.1875 -4.191406 1.1875 -3.609375 Z M 3.40625 -3.78125 "/></g></g></g><g fill="#000000" fill-opacity="1"><g transform="translate(182.557562, 81.102961)"><g><path d="M 0.453125 -5.953125 L 1.15625 -5.96875 L 1.3125 -5.203125 L 1.375 -5.203125 C 1.445312 -5.472656 1.5625 -5.695312 1.71875 -5.875 C 1.882812 -6.050781 2.09375 -6.144531 2.34375 -6.15625 C 2.445312 -6.15625 2.539062 -6.144531 2.625 -6.125 C 2.707031 -6.101562 2.765625 -6.085938 2.796875 -6.078125 L 2.828125 -5.125 L 2.515625 -5.109375 C 2.191406 -5.097656 1.929688 -4.976562 1.734375 -4.75 C 1.535156 -4.519531 1.445312 -4.160156 1.46875 -3.671875 L 1.59375 -0.0625 L 0.671875 -0.03125 Z M 0.453125 -5.953125 "/></g></g></g><g fill="#000000" fill-opacity="1"><g transform="translate(185.563947, 80.994954)"><g/></g></g><g fill="#000000" fill-opacity="1"><g transform="translate(188.030265, 80.931064)"><g><path d="M 2.6875 -7.65625 L 3.96875 -7.609375 L 6.171875 0.1875 L 5.109375 0.15625 L 4.625 -1.578125 L 1.5625 -1.671875 L 0.984375 0.03125 L -0.015625 0 Z M 4.375 -2.484375 L 3.4375 -5.953125 C 3.414062 -6.066406 3.382812 -6.222656 3.34375 -6.421875 C 3.3125 -6.617188 3.289062 -6.753906 3.28125 -6.828125 L 3.234375 -6.828125 C 3.234375 -6.753906 3.207031 -6.617188 3.15625 -6.421875 C 3.113281 -6.222656 3.070312 -6.070312 3.03125 -5.96875 L 1.859375 -2.5625 Z M 4.375 -2.484375 "/></g></g></g><g fill="#000000" fill-opacity="1"><g transform="translate(194.089365, 81.160526)"><g><path d="M 1.140625 -8.078125 L 2.0625 -8.015625 L 1.484375 0.109375 L 0.5625 0.046875 Z M 1.140625 -8.078125 "/></g></g></g><g fill="#000000" fill-opacity="1"><g transform="translate(196.05269, 81.271373)"><g><path d="M 1.296875 -5.828125 L 2 -5.75 L 2.03125 -5.046875 L 2.078125 -5.046875 C 2.253906 -5.296875 2.460938 -5.476562 2.703125 -5.59375 C 2.941406 -5.71875 3.195312 -5.765625 3.46875 -5.734375 C 4.0625 -5.671875 4.484375 -5.367188 4.734375 -4.828125 C 4.992188 -4.285156 5.070312 -3.492188 4.96875 -2.453125 C 4.863281 -1.441406 4.617188 -0.691406 4.234375 -0.203125 C 3.859375 0.285156 3.410156 0.503906 2.890625 0.453125 C 2.597656 0.421875 2.34375 0.332031 2.125 0.1875 C 1.90625 0.0390625 1.757812 -0.132812 1.6875 -0.34375 L 1.625 -0.34375 L 1.375 2.109375 L 0.46875 2 Z M 2.71875 -0.40625 C 3.082031 -0.375 3.363281 -0.503906 3.5625 -0.796875 C 3.769531 -1.097656 3.910156 -1.613281 3.984375 -2.34375 L 4.03125 -2.765625 C 4.113281 -3.492188 4.082031 -4.023438 3.9375 -4.359375 C 3.800781 -4.703125 3.550781 -4.890625 3.1875 -4.921875 C 2.476562 -4.992188 2.050781 -4.347656 1.90625 -2.984375 L 1.859375 -2.5625 C 1.722656 -1.195312 2.007812 -0.476562 2.71875 -0.40625 Z M 2.71875 -0.40625 "/></g></g></g><g fill="#000000" fill-opacity="1"><g transform="translate(201.041415, 81.7923)"><g><path d="M 2.671875 0.5625 C 1.929688 0.445312 1.410156 0.117188 1.109375 -0.421875 C 0.816406 -0.972656 0.753906 -1.785156 0.921875 -2.859375 C 1.078125 -3.898438 1.375 -4.640625 1.8125 -5.078125 C 2.257812 -5.523438 2.851562 -5.691406 3.59375 -5.578125 C 4.238281 -5.472656 4.6875 -5.175781 4.9375 -4.6875 C 5.1875 -4.207031 5.238281 -3.488281 5.09375 -2.53125 L 5 -1.9375 L 1.828125 -2.4375 C 1.734375 -1.757812 1.765625 -1.242188 1.921875 -0.890625 C 2.078125 -0.535156 2.375 -0.320312 2.8125 -0.25 C 3.113281 -0.207031 3.367188 -0.289062 3.578125 -0.5 C 3.796875 -0.707031 3.9375 -1.007812 4 -1.40625 L 4.90625 -1.265625 C 4.800781 -0.617188 4.539062 -0.132812 4.125 0.1875 C 3.71875 0.519531 3.234375 0.644531 2.671875 0.5625 Z M 4.171875 -2.90625 C 4.265625 -3.46875 4.25 -3.90625 4.125 -4.21875 C 4.007812 -4.53125 3.789062 -4.710938 3.46875 -4.765625 C 3.070312 -4.816406 2.753906 -4.71875 2.515625 -4.46875 C 2.285156 -4.226562 2.101562 -3.820312 1.96875 -3.25 Z M 4.171875 -2.90625 "/></g></g></g><g fill="#000000" fill-opacity="1"><g transform="translate(205.998787, 82.555788)"><g><path d="M 1.84375 -5.65625 L 2.53125 -5.515625 L 2.515625 -4.828125 L 2.578125 -4.8125 C 2.992188 -5.289062 3.519531 -5.460938 4.15625 -5.328125 C 4.613281 -5.234375 4.9375 -5.023438 5.125 -4.703125 C 5.320312 -4.378906 5.359375 -3.90625 5.234375 -3.28125 L 4.375 0.890625 L 3.453125 0.703125 L 4.296875 -3.421875 C 4.367188 -3.796875 4.351562 -4.066406 4.25 -4.234375 C 4.144531 -4.410156 3.957031 -4.523438 3.6875 -4.578125 C 3.382812 -4.640625 3.097656 -4.550781 2.828125 -4.3125 C 2.566406 -4.070312 2.382812 -3.707031 2.28125 -3.21875 L 1.5625 0.3125 L 0.65625 0.140625 Z M 1.84375 -5.65625 "/></g></g></g><g fill="#000000" fill-opacity="1"><g transform="translate(210.936449, 83.590257)"><g/></g></g><g fill="#000000" fill-opacity="1"><g transform="translate(213.350391, 84.151664)"><g><path d="M 0.9375 -3.34375 L 5.875 -1.953125 L 5.65625 -1.140625 L 0.71875 -2.53125 Z M 0.9375 -3.34375 "/></g></g></g><g fill="#000000" fill-opacity="1"><g transform="translate(218.199235, 85.544274)"><g/></g></g><g fill="#000000" fill-opacity="1"><g transform="translate(220.547409, 86.209207)"><g><path d="M 2.875 -7.171875 L 3.84375 -6.8125 L 3.046875 -1.390625 C 3.015625 -1.203125 2.960938 -0.945312 2.890625 -0.625 C 2.828125 -0.3125 2.785156 -0.113281 2.765625 -0.03125 L 2.8125 -0.015625 C 2.851562 -0.0859375 2.929688 -0.234375 3.046875 -0.453125 C 3.160156 -0.671875 3.304688 -0.929688 3.484375 -1.234375 L 6.21875 -5.890625 L 7.515625 -5.40625 L 6.5 -0.078125 C 6.445312 0.171875 6.390625 0.4375 6.328125 0.71875 C 6.265625 1.007812 6.21875 1.195312 6.1875 1.28125 L 6.21875 1.296875 C 6.269531 1.210938 6.375 1.035156 6.53125 0.765625 C 6.695312 0.503906 6.832031 0.28125 6.9375 0.09375 L 9.953125 -4.46875 L 10.8125 -4.140625 L 6.359375 2.4375 L 5.171875 1.984375 L 6.15625 -3.25 C 6.195312 -3.457031 6.257812 -3.738281 6.34375 -4.09375 C 6.425781 -4.445312 6.484375 -4.675781 6.515625 -4.78125 L 6.46875 -4.796875 C 6.414062 -4.703125 6.300781 -4.492188 6.125 -4.171875 C 5.957031 -3.859375 5.820312 -3.609375 5.71875 -3.421875 L 2.984375 1.140625 L 1.78125 0.6875 Z M 2.875 -7.171875 "/></g></g></g><g fill="#000000" fill-opacity="1"><g transform="translate(228.539498, 89.356667)"><g><path d="M 3.8125 -7.203125 L 4.65625 -6.84375 L 4.203125 -5.84375 L 3.359375 -6.203125 Z M 2.90625 -5.1875 L 3.75 -4.828125 L 1.359375 0.59375 L 0.515625 0.234375 Z M 2.90625 -5.1875 "/></g></g></g><g fill="#000000" fill-opacity="1"><g transform="translate(230.351771, 90.134546)"><g><path d="M 2 1.109375 C 1.414062 0.828125 1.054688 0.46875 0.921875 0.03125 C 0.785156 -0.40625 0.820312 -0.84375 1.03125 -1.28125 C 1.070312 -1.363281 1.101562 -1.414062 1.125 -1.4375 C 1.144531 -1.46875 1.15625 -1.484375 1.15625 -1.484375 L 2.015625 -1.0625 L 1.96875 -0.96875 C 1.8125 -0.644531 1.773438 -0.367188 1.859375 -0.140625 C 1.953125 0.0859375 2.128906 0.269531 2.390625 0.40625 C 2.617188 0.507812 2.84375 0.523438 3.0625 0.453125 C 3.28125 0.390625 3.445312 0.238281 3.5625 0 C 3.65625 -0.195312 3.679688 -0.378906 3.640625 -0.546875 C 3.609375 -0.722656 3.539062 -0.875 3.4375 -1 C 3.34375 -1.132812 3.191406 -1.304688 2.984375 -1.515625 C 2.734375 -1.753906 2.539062 -1.96875 2.40625 -2.15625 C 2.28125 -2.351562 2.195312 -2.582031 2.15625 -2.84375 C 2.125 -3.101562 2.1875 -3.394531 2.34375 -3.71875 C 2.570312 -4.175781 2.898438 -4.472656 3.328125 -4.609375 C 3.765625 -4.742188 4.238281 -4.691406 4.75 -4.453125 C 5.226562 -4.210938 5.535156 -3.882812 5.671875 -3.46875 C 5.804688 -3.0625 5.773438 -2.648438 5.578125 -2.234375 L 5.46875 -2.046875 L 4.609375 -2.453125 L 4.65625 -2.5625 C 4.769531 -2.789062 4.804688 -3.015625 4.765625 -3.234375 C 4.734375 -3.453125 4.585938 -3.625 4.328125 -3.75 C 4.054688 -3.875 3.832031 -3.882812 3.65625 -3.78125 C 3.476562 -3.6875 3.34375 -3.546875 3.25 -3.359375 C 3.144531 -3.128906 3.140625 -2.921875 3.234375 -2.734375 C 3.335938 -2.554688 3.53125 -2.328125 3.8125 -2.046875 C 4.0625 -1.796875 4.257812 -1.566406 4.40625 -1.359375 C 4.550781 -1.160156 4.644531 -0.925781 4.6875 -0.65625 C 4.726562 -0.382812 4.664062 -0.0664062 4.5 0.296875 C 4.238281 0.835938 3.882812 1.171875 3.4375 1.296875 C 2.988281 1.421875 2.507812 1.359375 2 1.109375 Z M 2 1.109375 "/></g></g></g><g fill="#000000" fill-opacity="1"><g transform="translate(234.417029, 92.086686)"><g><path d="M 1.953125 1.203125 C 1.378906 0.898438 1.03125 0.523438 0.90625 0.078125 C 0.789062 -0.367188 0.847656 -0.804688 1.078125 -1.234375 C 1.117188 -1.316406 1.148438 -1.367188 1.171875 -1.390625 C 1.203125 -1.421875 1.21875 -1.4375 1.21875 -1.4375 L 2.078125 -0.984375 L 2.015625 -0.890625 C 1.847656 -0.578125 1.800781 -0.300781 1.875 -0.0625 C 1.945312 0.175781 2.109375 0.363281 2.359375 0.5 C 2.578125 0.625 2.796875 0.65625 3.015625 0.59375 C 3.242188 0.539062 3.425781 0.394531 3.5625 0.15625 C 3.664062 -0.0390625 3.703125 -0.222656 3.671875 -0.390625 C 3.640625 -0.566406 3.570312 -0.722656 3.46875 -0.859375 C 3.375 -0.992188 3.234375 -1.171875 3.046875 -1.390625 C 2.816406 -1.640625 2.640625 -1.863281 2.515625 -2.0625 C 2.390625 -2.257812 2.3125 -2.488281 2.28125 -2.75 C 2.257812 -3.007812 2.332031 -3.300781 2.5 -3.625 C 2.738281 -4.070312 3.078125 -4.347656 3.515625 -4.453125 C 3.960938 -4.566406 4.4375 -4.492188 4.9375 -4.234375 C 5.40625 -3.984375 5.695312 -3.644531 5.8125 -3.21875 C 5.9375 -2.800781 5.890625 -2.390625 5.671875 -1.984375 L 5.5625 -1.8125 L 4.734375 -2.25 L 4.78125 -2.34375 C 4.90625 -2.570312 4.945312 -2.796875 4.90625 -3.015625 C 4.875 -3.234375 4.734375 -3.410156 4.484375 -3.546875 C 4.222656 -3.691406 4 -3.71875 3.8125 -3.625 C 3.632812 -3.539062 3.492188 -3.40625 3.390625 -3.21875 C 3.273438 -3 3.265625 -2.789062 3.359375 -2.59375 C 3.453125 -2.40625 3.632812 -2.164062 3.90625 -1.875 C 4.144531 -1.625 4.332031 -1.390625 4.46875 -1.171875 C 4.601562 -0.960938 4.679688 -0.722656 4.703125 -0.453125 C 4.734375 -0.179688 4.65625 0.128906 4.46875 0.484375 C 4.1875 1.015625 3.820312 1.332031 3.375 1.4375 C 2.925781 1.550781 2.453125 1.472656 1.953125 1.203125 Z M 1.953125 1.203125 "/></g></g></g><g fill="#000000" fill-opacity="1"><g transform="translate(238.390525, 94.207338)"><g><path d="M 2.25 1.515625 C 1.613281 1.128906 1.257812 0.625 1.1875 0 C 1.125 -0.613281 1.367188 -1.382812 1.921875 -2.3125 C 2.460938 -3.21875 3.019531 -3.789062 3.59375 -4.03125 C 4.175781 -4.269531 4.789062 -4.195312 5.4375 -3.8125 C 6 -3.476562 6.304688 -3.039062 6.359375 -2.5 C 6.410156 -1.957031 6.1875 -1.265625 5.6875 -0.421875 L 5.375 0.078125 L 2.609375 -1.578125 C 2.265625 -0.972656 2.097656 -0.476562 2.109375 -0.09375 C 2.128906 0.28125 2.328125 0.582031 2.703125 0.8125 C 2.960938 0.96875 3.226562 0.988281 3.5 0.875 C 3.78125 0.769531 4.023438 0.539062 4.234375 0.1875 L 5.03125 0.65625 C 4.695312 1.21875 4.273438 1.570312 3.765625 1.71875 C 3.253906 1.875 2.75 1.804688 2.25 1.515625 Z M 4.96875 -1.125 C 5.257812 -1.613281 5.40625 -2.023438 5.40625 -2.359375 C 5.414062 -2.691406 5.285156 -2.941406 5.015625 -3.109375 C 4.671875 -3.316406 4.335938 -3.347656 4.015625 -3.203125 C 3.703125 -3.054688 3.378906 -2.742188 3.046875 -2.265625 Z M 4.96875 -1.125 "/></g></g></g><g fill="#000000" fill-opacity="1"><g transform="translate(242.698355, 96.776615)"><g><path d="M 3.84375 -4.5625 L 4.421875 -4.171875 L 4.15625 -3.53125 L 4.203125 -3.5 C 4.765625 -3.78125 5.316406 -3.742188 5.859375 -3.390625 C 6.242188 -3.128906 6.460938 -2.8125 6.515625 -2.4375 C 6.578125 -2.0625 6.429688 -1.609375 6.078125 -1.078125 L 3.71875 2.46875 L 2.9375 1.953125 L 5.265625 -1.546875 C 5.484375 -1.867188 5.578125 -2.128906 5.546875 -2.328125 C 5.515625 -2.535156 5.382812 -2.710938 5.15625 -2.859375 C 4.894531 -3.035156 4.59375 -3.054688 4.25 -2.921875 C 3.914062 -2.796875 3.609375 -2.523438 3.328125 -2.109375 L 1.328125 0.890625 L 0.5625 0.375 Z M 3.84375 -4.5625 "/></g></g></g><g fill="#000000" fill-opacity="1"><g transform="translate(246.886075, 99.589957)"><g><path d="M 0.953125 0.6875 L 0.578125 0.421875 L 1.296875 -0.5625 L 2.21875 0.09375 L 1.5625 1 L 0.25 1.890625 L -0.234375 1.546875 Z M 0.953125 0.6875 "/></g></g></g><g fill="#000000" fill-opacity="1"><g transform="translate(248.921886, 101.053876)"><g/></g></g><g fill="#000000" fill-opacity="1"><g transform="translate(250.913004, 102.529373)"><g><path d="M 1.671875 1.546875 C 1.222656 1.179688 1.035156 0.695312 1.109375 0.09375 C 1.179688 -0.5 1.550781 -1.203125 2.21875 -2.015625 C 2.863281 -2.804688 3.476562 -3.300781 4.0625 -3.5 C 4.644531 -3.695312 5.140625 -3.628906 5.546875 -3.296875 C 5.773438 -3.109375 5.9375 -2.894531 6.03125 -2.65625 C 6.125 -2.414062 6.144531 -2.179688 6.09375 -1.953125 L 6.125 -1.921875 L 7.875 -4.078125 L 8.609375 -3.484375 L 3.46875 2.828125 L 2.921875 2.375 L 3.25 1.765625 L 3.203125 1.734375 C 2.921875 1.859375 2.644531 1.898438 2.375 1.859375 C 2.113281 1.828125 1.878906 1.722656 1.671875 1.546875 Z M 2.359375 1.046875 C 2.898438 1.484375 3.601562 1.171875 4.46875 0.109375 L 4.703125 -0.1875 C 5.597656 -1.28125 5.773438 -2.046875 5.234375 -2.484375 C 4.953125 -2.722656 4.640625 -2.765625 4.296875 -2.609375 C 3.960938 -2.460938 3.5625 -2.109375 3.09375 -1.546875 L 2.828125 -1.21875 C 2.367188 -0.65625 2.101562 -0.195312 2.03125 0.15625 C 1.96875 0.507812 2.078125 0.804688 2.359375 1.046875 Z M 2.359375 1.046875 "/></g></g></g><g fill="#000000" fill-opacity="1"><g transform="translate(254.80029, 105.699169)"><g><path d="M 1.34375 1.40625 C 1.039062 1.132812 0.851562 0.804688 0.78125 0.421875 C 0.71875 0.0351562 0.898438 -0.394531 1.328125 -0.875 C 1.828125 -1.4375 2.359375 -1.648438 2.921875 -1.515625 C 3.492188 -1.390625 4.140625 -1 4.859375 -0.34375 L 5.359375 -0.921875 C 5.578125 -1.148438 5.6875 -1.367188 5.6875 -1.578125 C 5.695312 -1.796875 5.570312 -2.023438 5.3125 -2.265625 C 5.070312 -2.472656 4.835938 -2.554688 4.609375 -2.515625 C 4.390625 -2.484375 4.191406 -2.363281 4.015625 -2.15625 L 3.9375 -2.0625 L 3.265625 -2.671875 C 3.273438 -2.710938 3.320312 -2.78125 3.40625 -2.875 C 3.757812 -3.257812 4.160156 -3.441406 4.609375 -3.421875 C 5.054688 -3.410156 5.5 -3.207031 5.9375 -2.8125 C 6.375 -2.414062 6.601562 -2.007812 6.625 -1.59375 C 6.65625 -1.1875 6.492188 -0.785156 6.140625 -0.390625 L 3.90625 2.078125 C 3.820312 2.171875 3.78125 2.257812 3.78125 2.34375 C 3.78125 2.4375 3.816406 2.515625 3.890625 2.578125 L 4.15625 2.828125 L 3.734375 3.3125 C 3.546875 3.257812 3.363281 3.148438 3.1875 2.984375 C 3.007812 2.828125 2.90625 2.644531 2.875 2.4375 C 2.84375 2.238281 2.875 2.035156 2.96875 1.828125 L 2.921875 1.796875 C 2.648438 1.867188 2.375 1.875 2.09375 1.8125 C 1.820312 1.75 1.570312 1.613281 1.34375 1.40625 Z M 2.0625 0.921875 C 2.207031 1.054688 2.382812 1.144531 2.59375 1.1875 C 2.8125 1.226562 3.035156 1.207031 3.265625 1.125 C 3.503906 1.050781 3.726562 0.894531 3.9375 0.65625 L 4.296875 0.265625 C 3.796875 -0.191406 3.375 -0.472656 3.03125 -0.578125 C 2.6875 -0.691406 2.367188 -0.59375 2.078125 -0.28125 C 1.867188 -0.0390625 1.757812 0.171875 1.75 0.359375 C 1.75 0.554688 1.851562 0.742188 2.0625 0.921875 Z M 2.0625 0.921875 "/></g></g></g><g fill="#000000" fill-opacity="1"><g transform="translate(258.528775, 109.062573)"><g><path d="M 1.53125 1.703125 C 1.070312 1.242188 0.847656 0.785156 0.859375 0.328125 C 0.867188 -0.128906 1.046875 -0.53125 1.390625 -0.875 C 1.453125 -0.9375 1.5 -0.976562 1.53125 -1 C 1.5625 -1.019531 1.578125 -1.03125 1.578125 -1.03125 L 2.265625 -0.359375 L 2.1875 -0.28125 C 1.9375 -0.03125 1.8125 0.21875 1.8125 0.46875 C 1.8125 0.71875 1.914062 0.945312 2.125 1.15625 C 2.300781 1.332031 2.503906 1.421875 2.734375 1.421875 C 2.960938 1.429688 3.175781 1.34375 3.375 1.15625 C 3.519531 1 3.601562 0.832031 3.625 0.65625 C 3.65625 0.488281 3.640625 0.328125 3.578125 0.171875 C 3.523438 0.015625 3.4375 -0.195312 3.3125 -0.46875 C 3.15625 -0.769531 3.046875 -1.03125 2.984375 -1.25 C 2.929688 -1.476562 2.925781 -1.722656 2.96875 -1.984375 C 3.019531 -2.242188 3.175781 -2.503906 3.4375 -2.765625 C 3.789062 -3.128906 4.195312 -3.300781 4.65625 -3.28125 C 5.113281 -3.257812 5.539062 -3.050781 5.9375 -2.65625 C 6.320312 -2.28125 6.507812 -1.875 6.5 -1.4375 C 6.5 -1 6.335938 -0.617188 6.015625 -0.296875 L 5.84375 -0.15625 L 5.171875 -0.828125 L 5.25 -0.90625 C 5.425781 -1.09375 5.53125 -1.289062 5.5625 -1.5 C 5.59375 -1.71875 5.503906 -1.929688 5.296875 -2.140625 C 5.085938 -2.347656 4.882812 -2.429688 4.6875 -2.390625 C 4.488281 -2.359375 4.316406 -2.269531 4.171875 -2.125 C 3.992188 -1.945312 3.921875 -1.75 3.953125 -1.53125 C 3.992188 -1.320312 4.097656 -1.039062 4.265625 -0.6875 C 4.429688 -0.375 4.550781 -0.0976562 4.625 0.140625 C 4.695312 0.378906 4.707031 0.632812 4.65625 0.90625 C 4.601562 1.175781 4.4375 1.453125 4.15625 1.734375 C 3.726562 2.160156 3.285156 2.359375 2.828125 2.328125 C 2.367188 2.304688 1.9375 2.097656 1.53125 1.703125 Z M 1.53125 1.703125 "/></g></g></g><g fill="#000000" fill-opacity="1"><g transform="translate(261.740367, 112.262214)"><g/></g></g><g fill="#000000" fill-opacity="1"><g transform="translate(263.460745, 114.045875)"><g><path d="M 1.765625 2.234375 C 1.585938 2.023438 1.476562 1.789062 1.4375 1.53125 C 1.40625 1.269531 1.4375 0.992188 1.53125 0.703125 L 1.5 0.671875 L 0.90625 1.03125 L 0.4375 0.5 L 6.5625 -4.875 L 7.171875 -4.171875 L 5.078125 -2.328125 L 5.125 -2.28125 C 5.351562 -2.363281 5.585938 -2.359375 5.828125 -2.265625 C 6.078125 -2.179688 6.296875 -2.023438 6.484375 -1.796875 C 6.828125 -1.410156 6.910156 -0.921875 6.734375 -0.328125 C 6.554688 0.253906 6.085938 0.882812 5.328125 1.5625 C 4.535156 2.25 3.84375 2.644531 3.25 2.75 C 2.65625 2.851562 2.160156 2.679688 1.765625 2.234375 Z M 2.265625 1.546875 C 2.503906 1.816406 2.800781 1.910156 3.15625 1.828125 C 3.519531 1.742188 3.972656 1.460938 4.515625 0.984375 L 4.84375 0.703125 C 5.382812 0.222656 5.71875 -0.1875 5.84375 -0.53125 C 5.976562 -0.875 5.925781 -1.179688 5.6875 -1.453125 C 5.21875 -1.984375 4.453125 -1.785156 3.390625 -0.859375 L 3.109375 -0.609375 C 2.078125 0.296875 1.796875 1.015625 2.265625 1.546875 Z M 2.265625 1.546875 "/></g></g></g><g fill="#000000" fill-opacity="1"><g transform="translate(266.771765, 117.813608)"><g><path d="M 1.578125 2.21875 C 1.109375 1.632812 0.953125 1.035156 1.109375 0.421875 C 1.265625 -0.179688 1.769531 -0.816406 2.625 -1.484375 C 3.445312 -2.140625 4.171875 -2.476562 4.796875 -2.5 C 5.421875 -2.519531 5.96875 -2.238281 6.4375 -1.65625 C 6.84375 -1.132812 6.972656 -0.613281 6.828125 -0.09375 C 6.679688 0.425781 6.222656 0.988281 5.453125 1.59375 L 5 1.96875 L 3 -0.546875 C 2.46875 -0.109375 2.140625 0.289062 2.015625 0.65625 C 1.890625 1.019531 1.960938 1.375 2.234375 1.71875 C 2.421875 1.957031 2.664062 2.070312 2.96875 2.0625 C 3.269531 2.050781 3.582031 1.921875 3.90625 1.671875 L 4.46875 2.390625 C 3.957031 2.796875 3.4375 2.976562 2.90625 2.9375 C 2.375 2.90625 1.929688 2.664062 1.578125 2.21875 Z M 5.046875 0.703125 C 5.484375 0.347656 5.765625 0.0195312 5.890625 -0.28125 C 6.015625 -0.59375 5.976562 -0.878906 5.78125 -1.140625 C 5.53125 -1.441406 5.234375 -1.582031 4.890625 -1.5625 C 4.546875 -1.550781 4.132812 -1.378906 3.65625 -1.046875 Z M 5.046875 0.703125 "/></g></g></g><g fill="#000000" fill-opacity="1"><g transform="translate(269.903355, 121.709109)"><g><path d="M 4.84375 -3.40625 L 5.421875 -2.578125 L 3.140625 -0.0625 C 2.992188 0.101562 2.800781 0.296875 2.5625 0.515625 C 2.332031 0.742188 2.1875 0.890625 2.125 0.953125 L 2.15625 0.984375 C 2.226562 0.941406 2.394531 0.847656 2.65625 0.703125 C 2.914062 0.566406 3.171875 0.441406 3.421875 0.328125 L 6.46875 -1.109375 L 7.078125 -0.25 L 4.71875 2.171875 C 4.539062 2.359375 4.335938 2.550781 4.109375 2.75 C 3.890625 2.945312 3.742188 3.078125 3.671875 3.140625 L 3.703125 3.171875 C 3.785156 3.128906 3.953125 3.046875 4.203125 2.921875 C 4.453125 2.796875 4.71875 2.675781 5 2.5625 L 8.125 1.25 L 8.65625 2 L 2.984375 4.21875 L 2.390625 3.375 L 4.78125 0.9375 C 4.976562 0.738281 5.179688 0.546875 5.390625 0.359375 C 5.609375 0.171875 5.75 0.046875 5.8125 -0.015625 L 5.78125 -0.0625 C 5.71875 -0.0078125 5.554688 0.0820312 5.296875 0.21875 C 5.046875 0.363281 4.796875 0.488281 4.546875 0.59375 L 1.453125 2.046875 L 0.859375 1.21875 Z M 4.84375 -3.40625 "/></g></g></g><g fill="#000000" fill-opacity="1"><g transform="translate(273.658134, 127.052143)"><g><path d="M 1.3125 2.375 C 0.914062 1.738281 0.828125 1.128906 1.046875 0.546875 C 1.273438 -0.0351562 1.847656 -0.613281 2.765625 -1.1875 C 3.660156 -1.738281 4.421875 -1.988281 5.046875 -1.9375 C 5.671875 -1.894531 6.179688 -1.554688 6.578125 -0.921875 C 6.921875 -0.367188 6.992188 0.160156 6.796875 0.671875 C 6.597656 1.179688 6.082031 1.695312 5.25 2.21875 L 4.75 2.53125 L 3.046875 -0.203125 C 2.460938 0.171875 2.085938 0.53125 1.921875 0.875 C 1.765625 1.226562 1.800781 1.585938 2.03125 1.953125 C 2.1875 2.210938 2.414062 2.351562 2.71875 2.375 C 3.019531 2.40625 3.34375 2.316406 3.6875 2.109375 L 4.171875 2.890625 C 3.617188 3.234375 3.082031 3.351562 2.5625 3.25 C 2.039062 3.15625 1.625 2.863281 1.3125 2.375 Z M 4.9375 1.265625 C 5.40625 0.960938 5.71875 0.660156 5.875 0.359375 C 6.039062 0.0664062 6.039062 -0.210938 5.875 -0.484375 C 5.664062 -0.828125 5.382812 -1.003906 5.03125 -1.015625 C 4.6875 -1.035156 4.257812 -0.90625 3.75 -0.625 Z M 4.9375 1.265625 "/></g></g></g><g fill="#000000" fill-opacity="1"><g transform="translate(276.32306, 131.301488)"><g><path d="M -1 2.40625 C -1.226562 2 -1.289062 1.617188 -1.1875 1.265625 C -1.082031 0.910156 -0.851562 0.632812 -0.5 0.4375 C -0.238281 0.289062 0.0234375 0.222656 0.296875 0.234375 C 0.566406 0.242188 0.796875 0.328125 0.984375 0.484375 C 1.003906 0.304688 1.054688 0.144531 1.140625 0 C 1.234375 -0.15625 1.363281 -0.273438 1.53125 -0.359375 C 1.726562 -0.472656 1.941406 -0.507812 2.171875 -0.46875 C 2.398438 -0.425781 2.617188 -0.3125 2.828125 -0.125 C 2.929688 -0.71875 3.265625 -1.171875 3.828125 -1.484375 C 4.367188 -1.785156 4.875 -1.875 5.34375 -1.75 C 5.820312 -1.625 6.210938 -1.300781 6.515625 -0.78125 C 6.660156 -0.507812 6.738281 -0.222656 6.75 0.078125 C 6.976562 0.222656 7.191406 0.300781 7.390625 0.3125 C 7.597656 0.332031 7.804688 0.296875 8.015625 0.203125 L 8.40625 0.90625 C 8.082031 1.09375 7.765625 1.164062 7.453125 1.125 C 7.148438 1.09375 6.894531 0.96875 6.6875 0.75 C 6.53125 1.25 6.207031 1.632812 5.71875 1.90625 C 5.1875 2.195312 4.679688 2.28125 4.203125 2.15625 C 3.722656 2.03125 3.34375 1.71875 3.0625 1.21875 L 2.765625 0.671875 C 2.691406 0.546875 2.582031 0.460938 2.4375 0.421875 C 2.300781 0.378906 2.164062 0.394531 2.03125 0.46875 C 1.90625 0.53125 1.820312 0.632812 1.78125 0.78125 C 1.75 0.925781 1.769531 1.0625 1.84375 1.1875 L 2.65625 2.65625 C 2.863281 3.03125 2.910156 3.394531 2.796875 3.75 C 2.691406 4.101562 2.46875 4.378906 2.125 4.578125 C 1.695312 4.816406 1.273438 4.875 0.859375 4.75 C 0.441406 4.632812 0.0976562 4.34375 -0.171875 3.875 Z M 3.703125 0.796875 C 3.859375 1.078125 4.070312 1.238281 4.34375 1.28125 C 4.625 1.320312 4.929688 1.253906 5.265625 1.078125 C 5.609375 0.878906 5.828125 0.648438 5.921875 0.390625 C 6.023438 0.140625 6 -0.125 5.84375 -0.40625 C 5.6875 -0.6875 5.46875 -0.847656 5.1875 -0.890625 C 4.914062 -0.929688 4.613281 -0.859375 4.28125 -0.671875 C 3.9375 -0.484375 3.710938 -0.257812 3.609375 0 C 3.515625 0.25 3.546875 0.515625 3.703125 0.796875 Z M 0.5625 3.5625 C 0.65625 3.738281 0.796875 3.851562 0.984375 3.90625 C 1.171875 3.957031 1.347656 3.9375 1.515625 3.84375 C 1.691406 3.75 1.804688 3.613281 1.859375 3.4375 C 1.921875 3.269531 1.894531 3.085938 1.78125 2.890625 L 0.984375 1.46875 C 0.867188 1.269531 0.722656 1.148438 0.546875 1.109375 C 0.378906 1.066406 0.207031 1.09375 0.03125 1.1875 C -0.144531 1.289062 -0.257812 1.425781 -0.3125 1.59375 C -0.363281 1.769531 -0.335938 1.953125 -0.234375 2.140625 Z M 0.5625 3.5625 "/></g></g></g><g fill="#000000" fill-opacity="1"><g transform="translate(278.769773, 135.713745)"><g><path d="M 0.6875 1.578125 C 0.519531 1.242188 0.515625 0.941406 0.671875 0.671875 C 0.828125 0.410156 1.078125 0.191406 1.421875 0.015625 L 4.859375 -1.734375 L 4.625 -2.1875 L 5.34375 -2.5625 L 5.578125 -2.109375 L 7.140625 -2.671875 L 7.46875 -2.03125 L 6 -1.28125 L 6.359375 -0.578125 L 5.640625 -0.203125 L 5.28125 -0.90625 L 1.828125 0.859375 C 1.503906 1.023438 1.421875 1.265625 1.578125 1.578125 L 1.703125 1.8125 L 1.140625 2.109375 C 1.054688 2.046875 0.972656 1.96875 0.890625 1.875 C 0.804688 1.78125 0.738281 1.679688 0.6875 1.578125 Z M 0.6875 1.578125 "/></g></g></g></svg>